<?xml version="1.0" encoding="UTF-8"?>
<svg version="1.1" xmlns="http://www.w3.org/2000/svg" width="500" height="500">
<path d="M0 0 C0.83789062 0.35320312 1.67578125 0.70640625 2.5390625 1.0703125 C3.44785156 1.46863281 3.44785156 1.46863281 4.375 1.875 C4.375 2.535 4.375 3.195 4.375 3.875 C5.7671875 4.2771875 5.7671875 4.2771875 7.1875 4.6875 C10.13281025 5.78477245 11.52517877 6.40857169 13.375 8.875 C13.375 9.535 13.375 10.195 13.375 10.875 C14.035 10.875 14.695 10.875 15.375 10.875 C15.375 11.535 15.375 12.195 15.375 12.875 C16.035 12.875 16.695 12.875 17.375 12.875 C18.78441913 14.89187578 20.06133007 16.88793333 21.3125 19 C21.65990234 19.56976563 22.00730469 20.13953125 22.36523438 20.7265625 C30.35594129 33.9691653 32.67964333 46.96731842 29.125 62.3125 C26.0045456 73.16877856 19.63452276 84.08049058 11.375 91.875 C8.5 93.3125 8.5 93.3125 6.375 93.875 C6.375 94.535 6.375 95.195 6.375 95.875 C4.33668152 97.00605506 2.29418624 98.12958472 0.25 99.25 C-0.88695312 99.87648438 -2.02390625 100.50296875 -3.1953125 101.1484375 C-20.55330144 109.88674173 -42.65334971 107.06499766 -61.5 106.875 C-65.61766383 106.83403302 -69.73524875 106.79577687 -73.85305786 106.77294922 C-76.39729981 106.757936 -78.94150854 106.7338869 -81.48556519 106.69970703 C-82.62840973 106.69310059 -83.77125427 106.68649414 -84.94873047 106.6796875 C-85.95144989 106.66921387 -86.95416931 106.65874023 -87.98727417 106.64794922 C-90.72650722 106.88373756 -92.33287493 107.38140561 -94.625 108.875 C-96.210869 112.046738 -96.00366445 115.51013822 -96.1875 119 C-96.23068359 119.75410156 -96.27386719 120.50820312 -96.31835938 121.28515625 C-96.4244832 123.14821888 -96.52525001 125.01158524 -96.625 126.875 C-93.37468216 126.73576462 -90.12483939 126.58745815 -86.875 126.4375 C-85.95460937 126.39818359 -85.03421875 126.35886719 -84.0859375 126.31835938 C-82.75175781 126.25551758 -82.75175781 126.25551758 -81.390625 126.19140625 C-80.57368164 126.15474854 -79.75673828 126.11809082 -78.91503906 126.08032227 C-76.71797467 125.883336 -74.75313514 125.43456246 -72.625 124.875 C-71.04288427 124.80951508 -69.45829919 124.78921619 -67.875 124.8125 C-67.07578125 124.82152344 -66.2765625 124.83054688 -65.453125 124.83984375 C-64.54820312 124.85724609 -64.54820312 124.85724609 -63.625 124.875 C-63.398125 124.2975 -63.17125 123.72 -62.9375 123.125 C-61.2216049 120.18346555 -59.46261392 118.76372014 -56.625 116.875 C-53.51879883 116.43676758 -53.51879883 116.43676758 -50.08203125 116.51953125 C-48.84388672 116.53693359 -47.60574219 116.55433594 -46.33007812 116.57226562 C-45.04552734 116.61029297 -43.76097656 116.64832031 -42.4375 116.6875 C-39.88158757 116.7396096 -37.32559534 116.78798419 -34.76953125 116.83203125 C-33.63878174 116.86272705 -32.50803223 116.89342285 -31.34301758 116.92504883 C-28.65763199 117.07076218 -28.65763199 117.07076218 -26.625 115.875 C-23.56150185 115.81478797 -20.51595851 115.8109769 -17.453125 115.83984375 C-15.5729112 115.83612983 -13.69270072 115.83020002 -11.8125 115.82226562 C-8.8448365 115.8117159 -5.87957232 115.81244085 -2.91210938 115.85083008 C-0.04945557 115.88401127 2.809229 115.86633579 5.671875 115.83984375 C6.55333191 115.86239731 7.43478882 115.88495087 8.34295654 115.90818787 C12.10866305 115.83508832 14.43902465 115.78653658 17.21350098 113.08450317 C18.82611749 110.95430665 18.82611749 110.95430665 20.1350708 108.7436676 C21.375 106.875 21.375 106.875 24.125 105.3125 C29.43854635 104.59721491 35.00933391 104.41149471 39.6796875 107.30078125 C40.23914063 107.82027344 40.79859375 108.33976562 41.375 108.875 C41.375 109.535 41.375 110.195 41.375 110.875 C42.035 110.875 42.695 110.875 43.375 110.875 C45.67555997 114.32583995 45.64510256 115.74675728 45.625 119.8125 C45.63273437 121.37291016 45.63273437 121.37291016 45.640625 122.96484375 C45.21786583 127.59654344 43.88159715 129.37966057 40.5625 132.625 C35.47082666 136.12350705 29.29184529 135.634595 23.375 134.875 C22.385 134.215 21.395 133.555 20.375 132.875 C20.375 132.215 20.375 131.555 20.375 130.875 C19.715 130.875 19.055 130.875 18.375 130.875 C17.715 129.885 17.055 128.895 16.375 127.875 C13.84247775 127.44107659 13.84247775 127.44107659 10.87890625 127.546875 C9.76193359 127.55203125 8.64496094 127.5571875 7.49414062 127.5625 C5.73360352 127.5934375 5.73360352 127.5934375 3.9375 127.625 C2.79861328 127.63015625 1.65972656 127.6353125 0.48632812 127.640625 C-8.12780622 127.71933782 -16.75954858 127.82397062 -25.140625 129.97265625 C-31.16005812 131.4212331 -37.05648191 130.60804824 -43.16015625 130.06445312 C-49.87686078 129.56597094 -49.87686078 129.56597094 -55.625 132.875 C-56.16125 133.555625 -56.6975 134.23625 -57.25 134.9375 C-64.12415836 140.54536603 -75.93993577 139.12222722 -84.3125 139 C-85.50294922 138.99097656 -86.69339844 138.98195313 -87.91992188 138.97265625 C-90.82183367 138.94934772 -93.72330317 138.91663123 -96.625 138.875 C-96.625 141.515 -96.625 144.155 -96.625 146.875 C-95.93390137 146.84470703 -95.24280273 146.81441406 -94.53076172 146.78320312 C-45.742891 144.70201422 -45.742891 144.70201422 -23.625 146.875 C-23.625 147.535 -23.625 148.195 -23.625 148.875 C-20.43846778 149.08021899 -17.25364948 149.20322933 -14.0625 149.3125 C-13.16724609 149.37115234 -12.27199219 149.42980469 -11.34960938 149.49023438 C-6.10308461 149.64671377 -6.10308461 149.64671377 -1.55126953 147.32080078 C0.28537726 145.45715793 0.28537726 145.45715793 1.82006836 143.48852539 C4.16301772 141.05728779 6.3633912 140.93460953 9.62890625 140.7421875 C10.39074219 140.74476563 11.15257812 140.74734375 11.9375 140.75 C13.08412109 140.74613281 13.08412109 140.74613281 14.25390625 140.7421875 C16.375 140.875 16.375 140.875 19.375 141.875 C19.375 142.535 19.375 143.195 19.375 143.875 C20.365 143.875 21.355 143.875 22.375 143.875 C26.02112303 149.2302432 27.52290354 153.37786595 26.375 159.875 C24.75130042 164.16620604 22.39099986 167.54312911 18.375 169.875 C13.49740238 171.50086587 8.47580966 171.7544087 3.6875 169.75 C1.375 167.875 1.375 167.875 -1.078125 164.76953125 C-3.91197315 161.91622877 -5.85542664 161.45397418 -9.84765625 161.39453125 C-11.79555484 161.46188232 -13.74258552 161.56040658 -15.6875 161.6875 C-17.63602711 161.79126772 -19.58532736 161.88157962 -21.53515625 161.95703125 C-22.82111694 162.03787964 -22.82111694 162.03787964 -24.13305664 162.12036133 C-26.625 161.875 -26.625 161.875 -28.86660767 160.38668823 C-32.22147324 158.54811337 -34.43888228 158.47907378 -38.2512207 158.44262695 C-38.89568649 158.4324353 -39.54015228 158.42224365 -40.20414734 158.41174316 C-42.31978156 158.38171418 -44.43496229 158.37236331 -46.55078125 158.36328125 C-48.02338656 158.34642696 -49.49597755 158.3282757 -50.96855164 158.30888367 C-54.83346074 158.2614585 -58.69831177 158.23160105 -62.56341553 158.20544434 C-66.51179471 158.17560081 -70.45997394 158.12908358 -74.40820312 158.08398438 C-82.14703604 157.99803654 -89.88588363 157.93065373 -97.625 157.875 C-97.295 161.175 -96.965 164.475 -96.625 167.875 C-95.62122314 167.84881592 -94.61744629 167.82263184 -93.58325195 167.7956543 C-89.84682648 167.70491832 -86.11049765 167.64766738 -82.37329102 167.6003418 C-80.75821539 167.57525041 -79.14325274 167.54116874 -77.52856445 167.49780273 C-75.20235294 167.43690714 -72.87764641 167.40873876 -70.55078125 167.38671875 C-69.47392815 167.34800911 -69.47392815 167.34800911 -68.37532043 167.30851746 C-64.4377576 167.30633169 -62.84880186 167.68326713 -59.81713867 170.28051758 C-59.09373291 171.13669678 -58.37032715 171.99287598 -57.625 172.875 C-53.94412647 175.32891569 -51.18144412 175.10302759 -46.9375 175 C-46.23560547 174.99097656 -45.53371094 174.98195313 -44.81054688 174.97265625 C-43.08188475 174.94913704 -41.35339855 174.91326713 -39.625 174.875 C-39.3775 174.25625 -39.13 173.6375 -38.875 173 C-37.35619021 170.41802336 -36.43490484 169.85086573 -33.625 168.875 C-27.94644098 168.11412115 -22.37645223 167.78848005 -17.5 171.125 C-14.18707562 174.29388419 -12.86117374 176.11239809 -12.25390625 180.64453125 C-12.09746191 187.81336323 -12.60515401 191.62697919 -17.625 196.875 C-22.51121438 199.96047589 -28.07063726 199.81136766 -33.625 198.875 C-36.93404117 197.05426019 -39.44367262 194.96471576 -41.625 191.875 C-42.33203125 189.13671875 -42.33203125 189.13671875 -42.625 186.875 C-44.48705078 186.97941406 -44.48705078 186.97941406 -46.38671875 187.0859375 C-48.02859158 187.14223028 -49.67052311 187.19682881 -51.3125 187.25 C-52.12912109 187.30027344 -52.94574219 187.35054687 -53.78710938 187.40234375 C-59.79924552 187.54838754 -59.79924552 187.54838754 -62.25244141 185.54785156 C-63.58203125 183.9140625 -63.58203125 183.9140625 -65.625 180.875 C-71.09157842 178.14171079 -78.73503955 178.65007885 -84.6875 179.3125 C-97.75234765 180.76414974 -111.57276498 180.39838766 -124.625 178.875 C-126.47397081 177.02602919 -125.78178198 174.0014515 -125.80200195 171.52612305 C-125.80857315 170.86250259 -125.81514435 170.19888214 -125.82191467 169.51515198 C-125.84171407 167.30567313 -125.85333361 165.09626293 -125.86328125 162.88671875 C-125.86735678 162.13033426 -125.8714323 161.37394978 -125.87563133 160.59464455 C-125.89653437 156.58027034 -125.91080965 152.5659306 -125.92016602 148.55151367 C-125.93115418 144.43054905 -125.96545194 140.3101359 -126.00533772 136.18936443 C-126.03168719 133.00201012 -126.03987462 129.81478248 -126.04344749 126.62732887 C-126.04827755 125.11048531 -126.05978756 123.59364602 -126.07848549 122.07691002 C-126.23644588 108.39732125 -124.2588619 97.18145185 -114.625 86.875 C-114.02816406 86.21371094 -113.43132812 85.55242187 -112.81640625 84.87109375 C-103.98722292 76.0786222 -91.64466948 76.44015167 -79.92682838 76.46430969 C-77.52458124 76.46885879 -75.12304363 76.45459427 -72.72087097 76.43591309 C-66.76298444 76.39329418 -60.80511912 76.3819033 -54.84710693 76.36968994 C-49.78894899 76.35811029 -44.73112125 76.33442466 -39.67310143 76.29499817 C-37.32170043 76.2815484 -34.9707625 76.28557428 -32.61933899 76.29040527 C-21.73668961 76.25152408 -13.88328471 75.3275984 -5.625 67.875 C-4.965 67.875 -4.305 67.875 -3.625 67.875 C-3.50253906 67.32328125 -3.38007813 66.7715625 -3.25390625 66.203125 C-2.54578114 63.58174259 -1.56770155 61.14701105 -0.5625 58.625 C2.92823396 48.93277897 1.23354119 41.30842345 -2.625 31.875 C-4.17397218 30.1578702 -4.17397218 30.1578702 -5.625 28.875 C-5.625 28.215 -5.625 27.555 -5.625 26.875 C-6.285 26.875 -6.945 26.875 -7.625 26.875 C-7.625 26.215 -7.625 25.555 -7.625 24.875 C-9.28038958 24.18080437 -10.95136023 23.52396236 -12.625 22.875 C-13.2658403 22.62528946 -13.9066806 22.37557892 -14.56694031 22.11830139 C-20.12851584 20.09386616 -25.00154191 19.43445323 -30.89453125 19.43359375 C-32.15966805 19.41378197 -32.15966805 19.41378197 -33.45036316 19.39356995 C-36.11277721 19.35307772 -38.77484993 19.33110304 -41.4375 19.3125 C-44.11790051 19.2886603 -46.79798231 19.26053254 -49.47819519 19.22071838 C-51.13751582 19.19647851 -52.7970054 19.18152482 -54.45649719 19.17710876 C-59.51470144 19.10854075 -62.70705773 18.79294227 -66.3125 15.1875 C-68.37057816 11.56136229 -69.19496035 8.04961795 -68.1171875 3.9375 C-66.74830427 0.47926867 -65.76044853 -1.03470098 -62.625 -3.125 C-60.54722595 -3.41693115 -60.54722595 -3.41693115 -58.12866211 -3.47558594 C-57.22019028 -3.50191101 -56.31171844 -3.52823608 -55.37571716 -3.55535889 C-53.90389732 -3.58209686 -53.90389732 -3.58209686 -52.40234375 -3.609375 C-51.38709122 -3.6334845 -50.37183868 -3.65759399 -49.32582092 -3.68243408 C-47.17312723 -3.73076771 -45.0203176 -3.77415128 -42.86743164 -3.81298828 C-39.59922842 -3.87431085 -36.33210397 -3.95753029 -33.06445312 -4.04296875 C-30.96877779 -4.08727203 -28.87307461 -4.13028111 -26.77734375 -4.171875 C-25.81030014 -4.19779724 -24.84325653 -4.22371948 -23.84690857 -4.25042725 C-15.5159495 -4.37322841 -7.70488606 -3.30209402 0 0 Z " fill="#FBFBFA" transform="translate(292.625,119.125)"/>
<path d="M0 0 C1.90859489 -0.0006747 3.8171897 -0.00164612 5.7257843 -0.00289917 C9.69862701 -0.00436437 13.67144706 -0.00225709 17.64428711 0.00244141 C22.74666709 0.00818098 27.84899496 0.00482579 32.9513731 -0.00113106 C36.87942402 -0.00473218 40.80746241 -0.00360091 44.73551369 -0.00100327 C46.61867084 -0.00033495 48.50182913 -0.00115909 50.38498497 -0.00348282 C53.00107254 -0.00600655 55.61707325 -0.00217473 58.2331543 0.00341797 C59.40572784 0.00038162 59.40572784 0.00038162 60.60198975 -0.00271606 C65.93650953 0.01854078 65.93650953 0.01854078 67.05078125 1.1328125 C67.20903383 3.13063376 67.30197296 5.13370084 67.3671875 7.13671875 C67.4300293 8.95913086 67.4300293 8.95913086 67.49414062 10.81835938 C67.53345703 12.09775391 67.57277344 13.37714844 67.61328125 14.6953125 C67.65646484 15.97857422 67.69964844 17.26183594 67.74414062 18.58398438 C67.85062925 21.76681103 67.95264087 24.94971924 68.05078125 28.1328125 C64.22094367 30.6792529 60.31123923 30.36675394 55.89257812 30.28051758 C55.07246246 30.27277817 54.2523468 30.26503876 53.40737915 30.25706482 C51.62747073 30.23942304 49.84760176 30.21737677 48.0677948 30.1914463 C45.24134826 30.15194992 42.41515026 30.1276242 39.58850098 30.10783386 C31.55187308 30.0498894 23.51561339 29.97318178 15.47949219 29.86547852 C10.56008152 29.80062619 5.64097587 29.76084243 0.72120667 29.73630333 C-1.14458185 29.72213862 -3.01032584 29.6986596 -4.87586975 29.66529274 C-16.99852872 29.45163576 -27.24272068 30.01920057 -37.44921875 37.4453125 C-44.33919177 44.8520335 -45.28066075 52.76518643 -45.25 62.56640625 C-44.89587937 66.76526518 -43.81338961 69.78649689 -41.82421875 73.4609375 C-40.94921875 75.1328125 -40.94921875 75.1328125 -40.94921875 77.1328125 C-40.28921875 77.1328125 -39.62921875 77.1328125 -38.94921875 77.1328125 C-38.94921875 77.7928125 -38.94921875 78.4528125 -38.94921875 79.1328125 C-38.11390625 79.535 -38.11390625 79.535 -37.26171875 79.9453125 C-34.94921875 81.1328125 -34.94921875 81.1328125 -32.64135742 82.63476562 C-23.11876601 87.93363394 -9.84048875 86.51717162 0.71289062 86.69921875 C15.17042046 87.04722836 15.17042046 87.04722836 20.046875 90.578125 C22.73411648 93.70959881 24.43770294 96.04393313 24.61328125 100.2578125 C23.90720691 105.12188015 22.88068378 107.68494379 19.01367188 110.74462891 C14.90245778 112.67082892 11.31910664 112.56322781 6.83203125 112.53125 C5.49054016 112.53555527 5.49054016 112.53555527 4.12194824 112.53994751 C2.22907885 112.54198591 0.33618829 112.53647172 -1.55664062 112.52392578 C-4.41195673 112.50802007 -7.26582446 112.52370309 -10.12109375 112.54296875 C-20.16557634 112.55394609 -29.28072704 112.08843609 -38.94921875 109.1328125 C-39.72386475 108.91020752 -40.49851074 108.68760254 -41.29663086 108.45825195 C-52.31178542 105.12670835 -60.87623359 95.01601329 -67.19921875 85.8828125 C-74.43141244 71.65172168 -76.57021215 57.67923328 -72.94921875 42.1328125 C-72.76488281 41.28074219 -72.58054688 40.42867187 -72.390625 39.55078125 C-69.06369474 26.42903767 -59.80744847 14.99612602 -48.57421875 7.7578125 C-33.38169721 -1.03601758 -17.02990667 -0.02130329 0 0 Z " fill="#FDFDFC" transform="translate(251.94921875,67.8671875)"/>
<path d="M0 0 C1.7325 0.1546875 1.7325 0.1546875 3.5 0.3125 C5.9078919 3.92433784 5.68277253 5.54041982 5.5625 9.8125 C5.41808351 14.64949775 5.41808351 14.64949775 6.5 19.3125 C11.78 18.9825 17.06 18.6525 22.5 18.3125 C22.59087891 16.48912109 22.59087891 16.48912109 22.68359375 14.62890625 C22.76798332 13.04425772 22.8526321 11.45962298 22.9375 9.875 C22.97681641 9.07255859 23.01613281 8.27011719 23.05664062 7.44335938 C23.38671875 1.42578125 23.38671875 1.42578125 24.5 0.3125 C28.53160191 0.04956944 30.05892734 0.01845156 33.5 2.3125 C33.8742218 4.1340332 33.8742218 4.1340332 33.87231445 6.36328125 C33.88165764 7.61467896 33.88165764 7.61467896 33.89118958 8.89135742 C33.88197983 9.79345947 33.87277008 10.69556152 33.86328125 11.625 C33.86402901 13.01199097 33.86402901 13.01199097 33.86479187 14.42700195 C33.86244907 16.38397366 33.85270846 18.34094824 33.83618164 20.29785156 C33.81259503 23.3004031 33.8156183 26.30206694 33.82226562 29.3046875 C33.81668892 31.20313032 33.80957909 33.10156938 33.80078125 35 C33.80214836 36.35315308 33.80214836 36.35315308 33.80354309 37.73364258 C33.79401108 38.56790771 33.78447906 39.40217285 33.7746582 40.26171875 C33.77005081 40.99737061 33.76544342 41.73302246 33.76069641 42.4909668 C33.5 44.3125 33.5 44.3125 31.5 46.3125 C28.81160615 46.58241906 26.20858064 46.39987357 23.5 46.3125 C22.50749455 40.60559366 22.39522488 35.09841511 22.5 29.3125 C21.14595503 29.28486643 19.79173445 29.26582578 18.4375 29.25 C17.30634766 29.23259766 17.30634766 29.23259766 16.15234375 29.21484375 C12.88875808 29.33500523 9.72478174 29.81121814 6.5 30.3125 C6.43941406 31.38371094 6.37882812 32.45492187 6.31640625 33.55859375 C6.23201463 34.95574391 6.14736594 36.35287857 6.0625 37.75 C6.02318359 38.45705078 5.98386719 39.16410156 5.94335938 39.89257812 C5.61328125 45.19921875 5.61328125 45.19921875 4.5 46.3125 C2.98071962 46.38429964 1.45832518 46.39642007 -0.0625 46.375 C-0.88878906 46.36597656 -1.71507812 46.35695313 -2.56640625 46.34765625 C-3.20449219 46.33605469 -3.84257812 46.32445312 -4.5 46.3125 C-5.63492279 44.04265442 -5.63220504 42.781949 -5.64526367 40.26171875 C-5.65164352 39.42745361 -5.65802338 38.59318848 -5.66459656 37.73364258 C-5.66570938 36.83154053 -5.6668222 35.92943848 -5.66796875 35 C-5.67129715 34.07533936 -5.67462555 33.15067871 -5.67805481 32.19799805 C-5.68312221 30.24105325 -5.68546319 28.28409979 -5.68530273 26.32714844 C-5.68749109 23.32472606 -5.70565386 20.32266991 -5.72460938 17.3203125 C-5.72754289 15.42187626 -5.72952797 13.52343827 -5.73046875 11.625 C-5.73765427 10.72289795 -5.74483978 9.8207959 -5.75224304 8.89135742 C-5.74916641 8.05709229 -5.74608978 7.22282715 -5.74291992 6.36328125 C-5.74434494 5.62762939 -5.74576996 4.89197754 -5.74723816 4.1340332 C-5.24239494 0.41458841 -3.4593341 0.30886912 0 0 Z " fill="#F6F6F5" transform="translate(359.5,336.6875)"/>
<path d="M0 0 C0.02527124 6.24795675 0.04283344 12.49590041 0.05493164 18.74389648 C0.05997298 20.87118014 0.06680591 22.99846031 0.07543945 25.12573242 C0.08751379 28.17627826 0.09323014 31.22677845 0.09765625 34.27734375 C0.10281754 35.23462875 0.10797882 36.19191376 0.11329651 37.1782074 C0.11337204 38.05904495 0.11344757 38.93988251 0.11352539 39.84741211 C0.115746 40.62684677 0.11796661 41.40628143 0.12025452 42.20933533 C0 44 0 44 -1 45 C-6.8410596 45.37086093 -6.8410596 45.37086093 -9 45 C-12.38272008 39.92591989 -11.66985868 33.99756732 -12 28 C-17.28 28 -22.56 28 -28 28 C-27.96042843 33.22063275 -27.96042843 33.22063275 -27.90991211 38.44116211 C-27.90276055 40.29433759 -27.9497148 42.14749308 -28 44 C-28.495 44.495 -28.495 44.495 -29 45 C-31.97 45 -34.94 45 -38 45 C-38 30.15 -38 15.3 -38 0 C-35.03 0 -32.06 0 -29 0 C-28 1 -28 1 -27.90234375 4.59765625 C-27.90808728 6.08597255 -27.92110109 7.57426296 -27.9375 9.0625 C-27.958125 11.681875 -27.97875 14.30125 -28 17 C-22.39 17 -16.78 17 -11 17 C-11.03950724 12.15350804 -11.03950724 12.15350804 -11.09008789 7.30712891 C-11.11111111 2.22222222 -11.11111111 2.22222222 -10 0 C-6.30581799 -1.231394 -3.7943739 -0.64432764 0 0 Z " fill="#FBFAF9" transform="translate(278,338)"/>
<path d="M0 0 C3.3 0 6.6 0 10 0 C12.3670953 2.3670953 13.03318039 4.72514631 14.13671875 7.83203125 C14.99359379 9.98391201 16.00691445 11.88510845 17.1875 13.875 C19 17 19 17 19 19 C19.66 19 20.32 19 21 19 C21 18.34 21 17.68 21 17 C21.66 17 22.32 17 23 17 C23.0825 16.360625 23.165 15.72125 23.25 15.0625 C24.57763491 9.64132412 26.90908751 4.63636874 30 0 C33.3 0 36.6 0 40 0 C40 12.54 40 25.08 40 38 C37.36 38 34.72 38 32 38 C30.34502644 34.69005287 30.89915665 31.00877 30.9375 27.375 C30.94201172 26.57320313 30.94652344 25.77140625 30.95117188 24.9453125 C30.96296832 22.96350994 30.98090395 20.98174567 31 19 C30.43410156 19.99902344 29.86820312 20.99804688 29.28515625 22.02734375 C28.5443558 23.33077746 27.80346575 24.63416025 27.0625 25.9375 C26.68931641 26.59685547 26.31613281 27.25621094 25.93164062 27.93554688 C23.11328125 32.88671875 23.11328125 32.88671875 22 34 C20.33382885 34.04063832 18.66611905 34.042721 17 34 C16.59007812 33.07316406 16.18015625 32.14632812 15.7578125 31.19140625 C15.21898437 29.99386719 14.68015625 28.79632813 14.125 27.5625 C13.59132813 26.36753906 13.05765625 25.17257812 12.5078125 23.94140625 C11.32272765 20.91472369 11.32272765 20.91472369 9 20 C9.01160156 21.21558594 9.02320313 22.43117188 9.03515625 23.68359375 C9.04453278 25.26822764 9.05363313 26.85286318 9.0625 28.4375 C9.07087891 29.23994141 9.07925781 30.04238281 9.08789062 30.86914062 C9.0965143 32.91295221 9.0522815 34.95683902 9 37 C8.505 37.495 8.505 37.495 8 38 C5.36 38 2.72 38 0 38 C0 25.46 0 12.92 0 0 Z " fill="#F5F5F4" transform="translate(294,397)"/>
<path d="M0 0 C1.30453125 -0.02578125 2.6090625 -0.0515625 3.953125 -0.078125 C8.89700502 0.34912389 12.23674844 1.73674844 15.75 5.25 C15.52259766 7.59982419 14.86698632 9.06152204 13.625 11.0625 C10.60807644 12.97321825 8.10739958 11.98252354 4.75 11.25 C4.09 10.92 3.43 10.59 2.75 10.25 C1.37657169 10.1810528 -0.00002102 10.16532292 -1.375 10.1875 C-2.65375 10.208125 -3.9325 10.22875 -5.25 10.25 C-5.36411667 12.68034078 -5.36411667 12.68034078 -4.25 15.25 C-1.6124108 16.47545525 0.73857413 17.3683094 3.5 18.1875 C9.77154438 20.05429963 12.95432443 21.81001459 16.75 27.25 C17.95272819 29.65545638 17.85071472 31.19996953 17.8125 33.875 C17.80347656 34.69226563 17.79445312 35.50953125 17.78515625 36.3515625 C17.77355469 36.97804688 17.76195312 37.60453125 17.75 38.25 C17.09 38.25 16.43 38.25 15.75 38.25 C15.70875 38.8275 15.6675 39.405 15.625 40 C14.28662757 43.4415291 11.88712081 44.46614699 8.75 46.25 C1.35409765 49.20836094 -6.65208399 46.71581763 -13.625 43.875 C-16.25 42.25 -16.25 42.25 -17.375 40.375 C-17.18490266 37.14334519 -15.37652704 35.56984768 -13.25 33.25 C-9.8328155 33.76257768 -6.52206595 34.4203296 -3.1875 35.3125 C-0.13363446 36.10380873 2.57604014 36.44837249 5.75 36.25 C5.255 33.775 5.255 33.775 4.75 31.25 C3.88117188 31.00765625 3.01234375 30.7653125 2.1171875 30.515625 C-11.89514379 26.44045035 -11.89514379 26.44045035 -16.1875 20.625 C-17.66679128 15.92607475 -17.78536529 11.96303675 -16.25 7.25 C-11.60173424 1.48893246 -7.23543777 0.0851228 0 0 Z " fill="#F7F7F6" transform="translate(126.25,336.75)"/>
<path d="M0 0 C0.79148438 -0.02578125 1.58296875 -0.0515625 2.3984375 -0.078125 C5.25460039 0.34278322 5.80754218 1.02406576 7.625 3.25 C8.56642312 5.27328343 9.42085517 7.33781234 10.21875 9.421875 C10.69183594 10.64390625 11.16492188 11.8659375 11.65234375 13.125 C12.14353775 14.41654935 12.63442077 15.70821701 13.125 17 C14.09137797 19.51654277 15.06159729 22.03159058 16.03125 24.546875 C16.45728516 25.66416992 16.88332031 26.78146484 17.32226562 27.93261719 C18.25037479 30.2960256 19.20528514 32.62539626 20.21289062 34.95410156 C21.52497937 38.01654935 22.61857678 41.07589601 23.625 44.25 C22.625 45.25 22.625 45.25 20.33984375 45.34765625 C19.42332031 45.33605469 18.50679687 45.32445312 17.5625 45.3125 C16.64339844 45.30347656 15.72429687 45.29445313 14.77734375 45.28515625 C14.06707031 45.27355469 13.35679687 45.26195312 12.625 45.25 C9.625 39.625 9.625 39.625 9.625 36.25 C4.015 36.25 -1.595 36.25 -7.375 36.25 C-8.035 38.23 -8.695 40.21 -9.375 42.25 C-10.035 43.24 -10.695 44.23 -11.375 45.25 C-13.5390625 45.54296875 -13.5390625 45.54296875 -16 45.4375 C-16.81726563 45.41042969 -17.63453125 45.38335937 -18.4765625 45.35546875 C-19.10304687 45.32066406 -19.72953125 45.28585937 -20.375 45.25 C-20.90109832 35.31425748 -15.7916066 25.88067413 -11.640625 17.06640625 C-9.68872348 12.72282293 -8.04949202 8.2668298 -6.390625 3.8046875 C-4.84264996 -0.08906509 -4.04143614 0.07847449 0 0 Z M0.625 16.25 C-0.035 17.36375 -0.695 18.4775 -1.375 19.625 C-1.74625 20.25148438 -2.1175 20.87796875 -2.5 21.5234375 C-3.52568348 23.22472667 -3.52568348 23.22472667 -3.375 25.25 C-0.735 25.58 1.905 25.91 4.625 26.25 C3.635 22.95 2.645 19.65 1.625 16.25 C1.295 16.25 0.965 16.25 0.625 16.25 Z " fill="#F8F8F7" transform="translate(171.375,337.75)"/>
<path d="M0 0 C1.11916472 0.79171372 2.22971679 1.59671418 3.3125 2.4375 C2.76169401 5.09789294 2.49561822 6.24784184 0.5625 8.25 C-2.33457418 9.77901137 -3.60969715 9.38451626 -6.6875 8.4375 C-7.6775 8.1075 -8.6675 7.7775 -9.6875 7.4375 C-12.02049825 7.39795766 -14.35458189 7.39348268 -16.6875 7.4375 C-17.3475 9.0875 -18.0075 10.7375 -18.6875 12.4375 C-18.14222656 12.61925781 -17.59695313 12.80101562 -17.03515625 12.98828125 C-11.5859375 14.8046875 -6.13671875 16.62109375 -0.6875 18.4375 C-0.6875 19.0975 -0.6875 19.7575 -0.6875 20.4375 C-0.048125 20.705625 0.59125 20.97375 1.25 21.25 C3.3125 22.4375 3.3125 22.4375 4.3125 25.4375 C4.72125175 29.63506604 4.76461454 33.30721366 3.1875 37.25 C-0.0558021 41.03385245 -3.76102836 43.57996142 -8.6875 44.4375 C-15.86760086 44.57046483 -22.41510289 44.18193729 -28.34375 39.8359375 C-29.6875 38.4375 -29.6875 38.4375 -30.5 35.8125 C-29.6875 33.4375 -29.6875 33.4375 -27.5625 31.5 C-23.77970259 30.10200965 -22.44775341 31.08948463 -18.6875 32.4375 C-15.34714383 32.62279712 -12.02972584 32.55639341 -8.6875 32.4375 C-8.3575 31.1175 -8.0275 29.7975 -7.6875 28.4375 C-8.62851562 28.20675781 -9.56953125 27.97601563 -10.5390625 27.73828125 C-24.08094262 24.19159836 -24.08094262 24.19159836 -29.0625 17.625 C-30.50884634 12.56278781 -30.37556738 8.81363475 -28.0625 4.1875 C-20.62090364 -4.42908526 -9.75288008 -6.13683898 0 0 Z " fill="#F9F9F8" transform="translate(340.6875,339.5625)"/>
<path d="M0 0 C3.41659491 -0.05816623 6.83306205 -0.09365195 10.25 -0.125 C11.21808594 -0.14175781 12.18617187 -0.15851563 13.18359375 -0.17578125 C14.11816406 -0.18222656 15.05273438 -0.18867188 16.015625 -0.1953125 C16.87446289 -0.20578613 17.73330078 -0.21625977 18.61816406 -0.22705078 C21.17903596 0.01706677 22.79511029 0.71009488 25 2 C25 2.66 25 3.32 25 4 C25.66 4 26.32 4 27 4 C28.43954532 8.31863597 27.96706534 12.4498392 27.83984375 16.96875 C27.75107565 20.17914315 27.75107565 20.17914315 30 23 C30.1953125 25.26171875 30.1953125 25.26171875 30.125 27.6875 C30.10695312 28.49574219 30.08890625 29.30398438 30.0703125 30.13671875 C30.04710937 30.75160156 30.02390625 31.36648438 30 32 C28.68 32.66 27.36 33.32 26 34 C26 34.66 26 35.32 26 36 C22.71533599 38.18977601 21.73816905 38.24786375 17.9296875 38.23046875 C16.95128906 38.22853516 15.97289063 38.22660156 14.96484375 38.22460938 C13.94519531 38.21236328 12.92554687 38.20011719 11.875 38.1875 C10.84761719 38.18685547 9.82023437 38.18621094 8.76171875 38.18554688 C1.14024086 38.14024086 1.14024086 38.14024086 0 37 C-0.08858646 34.26105915 -0.11523479 31.5474673 -0.09765625 28.80859375 C-0.0962413 27.98875504 -0.09482635 27.16891632 -0.09336853 26.32423401 C-0.08775289 23.69528618 -0.07519779 21.06642227 -0.0625 18.4375 C-0.05748701 16.65950643 -0.05292376 14.88151154 -0.04882812 13.10351562 C-0.03777839 8.73564455 -0.02050331 4.36783652 0 0 Z M10 8 C9.01 9.485 9.01 9.485 8 11 C8.66 12.32 9.32 13.64 10 15 C14.7897321 15.23428313 14.7897321 15.23428313 19 13 C19 11.68 19 10.36 19 9 C15.95699684 7.47849842 13.345915 7.76100607 10 8 Z M9 23 C8.67 24.32 8.34 25.64 8 27 C8.99 28.485 8.99 28.485 10 30 C12.1711557 30.40146079 12.1711557 30.40146079 14.5625 30.25 C15.36816406 30.23453125 16.17382812 30.2190625 17.00390625 30.203125 C18.99803449 30.21259465 18.99803449 30.21259465 20 29 C20.04080783 27.00041636 20.04254356 24.99954746 20 23 C16.37 23 12.74 23 9 23 Z " fill="#F9F8F8" transform="translate(108,397)"/>
<path d="M0 0 C6.74951172 -0.18359375 6.74951172 -0.18359375 9.00390625 1.46875 C9.51824219 2.1390625 10.03257812 2.809375 10.5625 3.5 C11.42101562 4.58667969 11.42101562 4.58667969 12.296875 5.6953125 C12.85890625 6.45585937 13.4209375 7.21640625 14 8 C14.56203125 8.73992187 15.1240625 9.47984375 15.703125 10.2421875 C16.72632852 11.59818052 17.73930274 12.96199993 18.73828125 14.3359375 C20.03870433 16.12952738 20.03870433 16.12952738 22 18 C22.09087891 16.17662109 22.09087891 16.17662109 22.18359375 14.31640625 C22.26798332 12.73175772 22.3526321 11.14712298 22.4375 9.5625 C22.47681641 8.76005859 22.51613281 7.95761719 22.55664062 7.13085938 C22.88671875 1.11328125 22.88671875 1.11328125 24 0 C26.33297433 -0.04092937 28.66705225 -0.04241723 31 0 C32.73270496 4.50640943 33.25666308 8.26045291 33.265625 13.078125 C33.26849518 14.05709747 33.26849518 14.05709747 33.27142334 15.05584717 C33.27277551 16.42395416 33.26914723 17.79207441 33.26074219 19.16015625 C33.24995836 21.25810176 33.26070502 23.35520456 33.2734375 25.453125 C33.27211709 26.78646022 33.26955715 28.11979492 33.265625 29.453125 C33.26336914 30.66129883 33.26111328 31.86947266 33.25878906 33.11425781 C33 36 33 36 31 38 C27.71484375 38.5234375 27.71484375 38.5234375 24 38 C21.78035365 35.85585182 20.26819119 34.1165181 18.5625 31.625 C18.11712891 31.02171875 17.67175781 30.4184375 17.21289062 29.796875 C14 25.35509073 14 25.35509073 14 23 C13.34 23 12.68 23 12 23 C10.375 21 10.375 21 9 19 C9.02320313 19.78503906 9.04640625 20.57007813 9.0703125 21.37890625 C9.17284781 27.34792603 9.04580539 32.37403518 7 38 C5.00045254 38.04254356 2.99958364 38.04080783 1 38 C0 37 0 37 -0.11352539 33.48999023 C-0.11336626 31.92951578 -0.10767142 30.36903607 -0.09765625 28.80859375 C-0.0962413 27.98875504 -0.09482635 27.16891632 -0.09336853 26.32423401 C-0.08775289 23.69528618 -0.07519779 21.06642227 -0.0625 18.4375 C-0.05748701 16.65950643 -0.05292376 14.88151154 -0.04882812 13.10351562 C-0.03777839 8.73564455 -0.02050331 4.36783652 0 0 Z " fill="#F6F5F4" transform="translate(182,397)"/>
<path d="M0 0 C7.765625 -0.15087891 7.765625 -0.15087891 9.875 1.20703125 C13 5.66666667 13 5.66666667 13 9 C13.66 9 14.32 9 15 9 C19 13.35294118 19 13.35294118 19 17 C19.99 17.33 20.98 17.66 22 18 C23.18695553 14.43913342 23.35095418 11.02668976 23.5625 7.3125 C23.60568359 6.61060547 23.64886719 5.90871094 23.69335938 5.18554688 C23.7991736 3.45724794 23.90006581 1.7286489 24 0 C26.64 0 29.28 0 32 0 C33.22877826 3.81506975 33.14430475 7.61113503 33.1328125 11.57421875 C33.13376923 12.29865677 33.13472595 13.02309479 33.13571167 13.76948547 C33.13639033 15.29497363 33.134558 16.82046471 33.13037109 18.34594727 C33.124995 20.68968101 33.13033859 23.03322514 33.13671875 25.37695312 C33.13605837 26.85937542 33.13477804 28.34179761 33.1328125 29.82421875 C33.13483673 30.52834396 33.13686096 31.23246918 33.13894653 31.95793152 C33.11496776 36.88503224 33.11496776 36.88503224 32 38 C28.8125 38.5 28.8125 38.5 25 38 C22.49608945 36.03264171 20.80008012 33.60750391 19 31 C18.45988281 30.22011719 17.91976563 29.44023437 17.36328125 28.63671875 C15.87970072 26.44188169 14.43339401 24.22780514 13 22 C12.34 21.01 11.68 20.02 11 19 C8.89684992 21.10315008 9.6274438 25.57823298 9.5 28.5 C9.13513514 36.86486486 9.13513514 36.86486486 8 38 C5.66702567 38.04092937 3.33294775 38.04241723 1 38 C-0.27159943 34.11040173 -0.12651187 30.21436421 -0.09765625 26.171875 C-0.0962413 25.42286926 -0.09482635 24.67386353 -0.09336853 23.90216064 C-0.08778659 21.51806588 -0.07523745 19.13406622 -0.0625 16.75 C-0.05748266 15.13020969 -0.05292016 13.51041791 -0.04882812 11.890625 C-0.03782308 7.92704688 -0.02057091 3.96353955 0 0 Z " fill="#FBFBFA" transform="translate(362,397)"/>
<path d="M0 0 C1.12591553 0.00523682 2.25183105 0.01047363 3.41186523 0.01586914 C4.62680664 0.0190918 5.84174805 0.02231445 7.09350586 0.02563477 C8.37290039 0.03401367 9.65229492 0.04239258 10.97045898 0.05102539 C12.2537207 0.05553711 13.53698242 0.06004883 14.85913086 0.06469727 C18.04211921 0.07652994 21.22501661 0.09301471 24.40795898 0.11352539 C24.45037622 2.44647314 24.44888836 4.78055106 24.40795898 7.11352539 C23.40795898 8.11352539 23.40795898 8.11352539 19.59155273 8.21118164 C18.00949217 8.20450628 16.4274474 8.19254415 14.84545898 8.17602539 C14.03915039 8.17151367 13.2328418 8.16700195 12.40209961 8.16235352 C10.40402142 8.15053057 8.40598115 8.13259453 6.40795898 8.11352539 C6.40795898 10.42352539 6.40795898 12.73352539 6.40795898 15.11352539 C7.55135742 15.10192383 8.69475586 15.09032227 9.87280273 15.07836914 C11.36368653 15.06899251 12.85457207 15.05989218 14.34545898 15.05102539 C15.47757813 15.03845703 15.47757813 15.03845703 16.63256836 15.02563477 C18.55790212 15.01700098 20.48331479 15.06128206 22.40795898 15.11352539 C22.73795898 15.44352539 23.06795898 15.77352539 23.40795898 16.11352539 C23.12065843 18.45297275 22.78859119 20.78743969 22.40795898 23.11352539 C18.98562926 24.25430196 16.32122681 24.21167656 12.72045898 24.17602539 C10.9512207 24.16249023 10.9512207 24.16249023 9.14624023 24.14868164 C8.24260742 24.13708008 7.33897461 24.12547852 6.40795898 24.11352539 C6.73795898 25.76352539 7.06795898 27.41352539 7.40795898 29.11352539 C8.62354492 29.17411133 9.83913086 29.23469727 11.09155273 29.29711914 C12.67620126 29.38150871 14.260836 29.46615749 15.84545898 29.55102539 C16.64790039 29.5903418 17.4503418 29.6296582 18.27709961 29.67016602 C24.29467773 30.00024414 24.29467773 30.00024414 25.40795898 31.11352539 C25.44876681 33.11310903 25.45050255 35.11397793 25.40795898 37.11352539 C20.95030327 37.33858763 16.49190211 37.54074969 12.03295898 37.73852539 C10.76194336 37.80297852 9.49092773 37.86743164 8.18139648 37.93383789 C6.96967773 37.98540039 5.75795898 38.03696289 4.50952148 38.09008789 C3.38884277 38.14245605 2.26816406 38.19482422 1.11352539 38.2487793 C-1.59204102 38.11352539 -1.59204102 38.11352539 -3.59204102 36.11352539 C-3.77941751 33.47236426 -3.84773968 30.93798559 -3.82250977 28.29711914 C-3.82205154 27.52545914 -3.82159332 26.75379913 -3.82112122 25.95875549 C-3.81809889 24.32714297 -3.81021315 22.69553334 -3.79785156 21.06396484 C-3.77958889 18.55759539 -3.7773419 16.05159506 -3.77758789 13.54516602 C-3.772673 11.96248051 -3.7668448 10.37979752 -3.76000977 8.79711914 C-3.75889694 8.04297226 -3.75778412 7.28882538 -3.75663757 6.51182556 C-3.69828066 0.16197612 -3.69828066 0.16197612 0 0 Z " fill="#FCFCFB" transform="translate(148.592041015625,396.886474609375)"/>
<path d="M0 0 C2.05078125 0.03255208 4.1015625 0.06510417 6.15234375 0.09765625 C9.03492733 6.44898086 11.7090537 12.86345628 14.27734375 19.34765625 C14.62410156 20.2190625 14.97085937 21.09046875 15.328125 21.98828125 C15.98850781 23.64809399 16.64653793 25.30884552 17.30175781 26.97070312 C17.97108119 28.64439581 18.67629703 30.30373739 19.39453125 31.95703125 C20.15234375 34.09765625 20.15234375 34.09765625 20.15234375 38.09765625 C14.8595021 38.44472783 14.8595021 38.44472783 12.15234375 38.09765625 C10.15234375 36.28515625 10.15234375 36.28515625 9.15234375 34.09765625 C9.15234375 33.10765625 9.15234375 32.11765625 9.15234375 31.09765625 C4.53234375 31.09765625 -0.08765625 31.09765625 -4.84765625 31.09765625 C-5.83765625 33.57265625 -5.83765625 33.57265625 -6.84765625 36.09765625 C-8.84765625 38.09765625 -8.84765625 38.09765625 -12.47265625 38.22265625 C-13.58640625 38.18140625 -14.70015625 38.14015625 -15.84765625 38.09765625 C-17.27312952 33.53614179 -16.348938 31.28737399 -14.22265625 27.09765625 C-11.49101336 21.51395002 -9.1688629 15.90203585 -7.0234375 10.0703125 C-3.10522092 0.16412373 -3.10522092 0.16412373 0 0 Z M1.15234375 14.09765625 C-0.30828475 16.74504541 -0.84765625 17.99213959 -0.84765625 21.09765625 C0.80234375 20.76765625 2.45234375 20.43765625 4.15234375 20.09765625 C3.49234375 18.11765625 2.83234375 16.13765625 2.15234375 14.09765625 C1.82234375 14.09765625 1.49234375 14.09765625 1.15234375 14.09765625 Z " fill="#F9F9F8" transform="translate(266.84765625,396.90234375)"/>
<path d="M0 0 C11.88 0 23.76 0 36 0 C36 2.97 36 5.94 36 9 C32.37 9 28.74 9 25 9 C24.14669682 13.26651588 23.80808138 16.94803215 23.68359375 21.26953125 C23.66281265 21.95053391 23.64203156 22.63153656 23.62062073 23.33317566 C23.55562122 25.49285508 23.49647288 27.65264846 23.4375 29.8125 C23.3942675 31.28321456 23.35065175 32.75391791 23.30664062 34.22460938 C23.19999141 37.81628717 23.09858651 41.40809082 23 45 C20.03 45 17.06 45 14 45 C12.46702703 41.93405406 12.87868545 38.72888147 12.90234375 35.3671875 C12.9037587 34.61535187 12.90517365 33.86351624 12.90663147 33.08889771 C12.91223535 30.6842249 12.92478843 28.27964473 12.9375 25.875 C12.9425145 24.24609509 12.9470775 22.61718873 12.95117188 20.98828125 C12.96220603 16.99215173 12.97947321 12.99609158 13 9 C12.22914063 9.08378906 11.45828125 9.16757812 10.6640625 9.25390625 C9.66117188 9.35574219 8.65828125 9.45757812 7.625 9.5625 C6.12839844 9.71912109 6.12839844 9.71912109 4.6015625 9.87890625 C2 10 2 10 0 9 C0 6.03 0 3.06 0 0 Z " fill="#F3F3F1" transform="translate(194,338)"/>
<path d="M0 0 C3.63 0 7.26 0 11 0 C11.04951793 5.60504881 11.08577555 11.20996965 11.10986328 16.81518555 C11.11990737 18.7211326 11.13354516 20.62706429 11.15087891 22.53295898 C11.17519718 25.27591752 11.18649912 28.01867191 11.1953125 30.76171875 C11.20563507 31.61086349 11.21595764 32.46000824 11.22659302 33.33488464 C11.22741351 37.68255955 11.03452583 41.0400665 9 45 C5.625 45.125 5.625 45.125 2 45 C0 43 0 43 -0.24050903 41.12704468 C-0.2338472 39.98787094 -0.2338472 39.98787094 -0.22705078 38.82568359 C-0.22689972 37.96494232 -0.22674866 37.10420105 -0.22659302 36.21737671 C-0.21627045 35.28712677 -0.20594788 34.35687683 -0.1953125 33.3984375 C-0.1924826 32.44683746 -0.18965271 31.49523743 -0.18673706 30.51480103 C-0.17551989 27.46807408 -0.15041263 24.42163846 -0.125 21.375 C-0.11497218 19.31250424 -0.10584599 17.25000388 -0.09765625 15.1875 C-0.07557554 10.12488733 -0.0410353 5.0624931 0 0 Z " fill="#EDECEB" transform="translate(289,338)"/>
<path d="M0 0 C2.64 0 5.28 0 8 0 C8.12397147 4.46564301 8.21450992 8.93036439 8.2746582 13.3972168 C8.29974109 14.91529801 8.3338166 16.43325918 8.37719727 17.95092773 C8.43813293 20.13815965 8.46626895 22.32379039 8.48828125 24.51171875 C8.51446533 25.82615967 8.54064941 27.14060059 8.56762695 28.49487305 C7.85952031 32.86746963 6.41228065 34.27614523 3 37 C-1.46834905 38.8057512 -5.6782637 39.29371918 -10.375 38.25 C-11.674375 37.63125 -11.674375 37.63125 -13 37 C-13.78375 36.62875 -14.5675 36.2575 -15.375 35.875 C-16.179375 35.441875 -16.179375 35.441875 -17 35 C-16.25 30.25 -16.25 30.25 -14 28 C-11.43359375 28.05859375 -11.43359375 28.05859375 -8.4375 28.4375 C-6.62907484 28.66090753 -4.81656242 28.8571243 -3 29 C-1.23455951 27.23455951 -1.78651464 24.6816094 -1.71875 22.28515625 C-1.68136719 21.12435547 -1.64398438 19.96355469 -1.60546875 18.76757812 C-1.57066406 17.54490234 -1.53585938 16.32222656 -1.5 15.0625 C-1.43131998 12.65742737 -1.35860936 10.25246536 -1.28125 7.84765625 C-1.25095703 6.77523682 -1.22066406 5.70281738 -1.18945312 4.59790039 C-1 2 -1 2 0 0 Z " fill="#F6F6F5" transform="translate(237,397)"/>
<path d="M0 0 C2.97 0 5.94 0 9 0 C9 12.54 9 25.08 9 38 C6.36 38 3.72 38 1 38 C0 37 0 37 -0.11352539 33.48999023 C-0.11336626 31.92951578 -0.10767142 30.36903607 -0.09765625 28.80859375 C-0.0962413 27.98875504 -0.09482635 27.16891632 -0.09336853 26.32423401 C-0.08775289 23.69528618 -0.07519779 21.06642227 -0.0625 18.4375 C-0.05748701 16.65950643 -0.05292376 14.88151154 -0.04882812 13.10351562 C-0.03777839 8.73564455 -0.02050331 4.36783652 0 0 Z " fill="#FEFDFC" transform="translate(344,397)"/>
<path d="M0 0 C8.91 0 17.82 0 27 0 C27 2.31 27 4.62 27 7 C26 8 26 8 22.18359375 8.09765625 C20.60153318 8.09098089 19.01948841 8.07901875 17.4375 8.0625 C16.63119141 8.05798828 15.82488281 8.05347656 14.99414062 8.04882812 C12.99606244 8.03700518 10.99802217 8.01906914 9 8 C9 10.31 9 12.62 9 15 C13.95 15 18.9 15 24 15 C24 15.66 24 16.32 24 17 C18.39 17 12.78 17 7 17 C7 13.37 7 9.74 7 6 C13.27 6 19.54 6 26 6 C26 4.68 26 3.36 26 2 C17.09 2 8.18 2 -1 2 C-0.67 1.34 -0.34 0.68 0 0 Z " fill="#D4D2CF" transform="translate(146,397)"/>
<path d="M0 0 C2.97 0 5.94 0 9 0 C9 12.54 9 25.08 9 38 C6.36 38 3.72 38 1 38 C0 37 0 37 -0.11352539 33.48999023 C-0.11336626 31.92951578 -0.10767142 30.36903607 -0.09765625 28.80859375 C-0.0962413 27.98875504 -0.09482635 27.16891632 -0.09336853 26.32423401 C-0.08775289 23.69528618 -0.07519779 21.06642227 -0.0625 18.4375 C-0.05748701 16.65950643 -0.05292376 14.88151154 -0.04882812 13.10351562 C-0.03777839 8.73564455 -0.02050331 4.36783652 0 0 Z M1 2 C1 13.22 1 24.44 1 36 C2.98 36 4.96 36 7 36 C7 24.78 7 13.56 7 2 C5.02 2 3.04 2 1 2 Z " fill="#CECCCA" transform="translate(344,397)"/>
<path d="M0 0 C5.28 0 10.56 0 16 0 C15.67 0.99 15.34 1.98 15 3 C10.71 3 6.42 3 2 3 C2.33 4.65 2.66 6.3 3 8 C4.21558594 8.06058594 5.43117187 8.12117188 6.68359375 8.18359375 C8.26824228 8.26798332 9.85287702 8.3526321 11.4375 8.4375 C12.23994141 8.47681641 13.04238281 8.51613281 13.86914062 8.55664062 C19.88671875 8.88671875 19.88671875 8.88671875 21 10 C21 11.98 21 13.96 21 16 C12.42 16.33 3.84 16.66 -5 17 C-5 16.34 -5 15.68 -5 15 C2.92 15 10.84 15 19 15 C19 13.68 19 12.36 19 11 C12.73 11 6.46 11 0 11 C0 7.37 0 3.74 0 0 Z " fill="#DFDDDB" transform="translate(153,418)"/>
<path d="M0 0 C17.82 0 35.64 0 54 0 C54 0.33 54 0.66 54 1 C36.51 1 19.02 1 1 1 C1.33 4.3 1.66 7.6 2 11 C11.24 11 20.48 11 30 11 C30 11.66 30 12.32 30 13 C20.1 13 10.2 13 0 13 C0 8.71 0 4.42 0 0 Z " fill="#E7E7E4" transform="translate(194,276)"/>
<path d="M0 0 C6.6 0 13.2 0 20 0 C20 0.66 20 1.32 20 2 C14.06 2 8.12 2 2 2 C2 13.22 2 24.44 2 36 C3.98 36 5.96 36 8 36 C8 36.66 8 37.32 8 38 C5.66705225 38.04241723 3.33297433 38.04092937 1 38 C0 37 0 37 -0.11352539 33.48999023 C-0.11336626 31.92951578 -0.10767142 30.36903607 -0.09765625 28.80859375 C-0.0962413 27.98875504 -0.09482635 27.16891632 -0.09336853 26.32423401 C-0.08775289 23.69528618 -0.07519779 21.06642227 -0.0625 18.4375 C-0.05748701 16.65950643 -0.05292376 14.88151154 -0.04882812 13.10351562 C-0.03862752 8.73561842 -0.01905532 4.3679036 0 0 Z " fill="#D3D1CE" transform="translate(108,397)"/>
<path d="M0 0 C7.75 -0.1875 7.75 -0.1875 10 1.5 C10.495 2.2425 10.495 2.2425 11 3 C10.67 3.66 10.34 4.32 10 5 C9.34 4.67 8.68 4.34 8 4 C8 3.34 8 2.68 8 2 C6.02 2 4.04 2 2 2 C2 13.22 2 24.44 2 36 C3.98 36 5.96 36 8 36 C8 28.41 8 20.82 8 13 C10 15 10 15 10.15112305 17.23071289 C10.10511963 18.1355542 10.05911621 19.04039551 10.01171875 19.97265625 C9.94114258 21.44508789 9.94114258 21.44508789 9.86914062 22.94726562 C9.80919922 23.97529297 9.74925781 25.00332031 9.6875 26.0625 C9.63916016 27.09439453 9.59082031 28.12628906 9.54101562 29.18945312 C9.1427542 36.8572458 9.1427542 36.8572458 8 38 C5.66702567 38.04092937 3.33294775 38.04241723 1 38 C-0.27159943 34.11040173 -0.12651187 30.21436421 -0.09765625 26.171875 C-0.0962413 25.42286926 -0.09482635 24.67386353 -0.09336853 23.90216064 C-0.08778659 21.51806588 -0.07523745 19.13406622 -0.0625 16.75 C-0.05748266 15.13020969 -0.05292016 13.51041791 -0.04882812 11.890625 C-0.03782308 7.92704688 -0.02057091 3.96353955 0 0 Z " fill="#DEDDDA" transform="translate(362,397)"/>
<path d="M0 0 C0.33 0 0.66 0 1 0 C1 11.55 1 23.1 1 35 C2.65 35 4.3 35 6 35 C6 27.08 6 19.16 6 11 C9.86107457 13.57404971 9.94319692 15.61020259 11 20 C10.01 19.67 9.02 19.34 8 19 C8.01160156 20.21558594 8.02320313 21.43117188 8.03515625 22.68359375 C8.04453278 24.26822764 8.05363313 25.85286318 8.0625 27.4375 C8.07087891 28.23994141 8.07925781 29.04238281 8.08789062 29.86914062 C8.0965143 31.91295221 8.0522815 33.95683902 8 36 C7.505 36.495 7.505 36.495 7 37 C4.69 37 2.38 37 0 37 C0 24.79 0 12.58 0 0 Z " fill="#BDBCB9" transform="translate(295,398)"/>
<path d="M0 0 C0.99 0.495 0.99 0.495 2 1 C2 10.24 2 19.48 2 29 C4.31 29 6.62 29 9 29 C9 23.39 9 17.78 9 12 C11 14 11 14 11.23046875 17.66015625 C11.22647733 19.12766864 11.21172158 20.59518209 11.1875 22.0625 C11.18685547 22.80822266 11.18621094 23.55394531 11.18554688 24.32226562 C11.14028159 29.85971841 11.14028159 29.85971841 10 31 C8.48071962 31.07179964 6.95832518 31.08392007 5.4375 31.0625 C4.61121094 31.05347656 3.78492188 31.04445313 2.93359375 31.03515625 C1.97646484 31.01775391 1.97646484 31.01775391 1 31 C-0.43509221 28.12981559 -0.11158506 25.66456277 -0.09765625 22.4609375 C-0.09443359 21.15898437 -0.09121094 19.85703125 -0.08789062 18.515625 C-0.07953466 17.13541601 -0.07106971 15.75520768 -0.0625 14.375 C-0.05748501 12.98698074 -0.0529221 11.59895978 -0.04882812 10.2109375 C-0.03700976 6.80724868 -0.02053434 3.40364561 0 0 Z " fill="#D9D8D5" transform="translate(354,352)"/>
<path d="M0 0 C0.66 0 1.32 0 2 0 C2.02527124 6.24795675 2.04283344 12.49590041 2.05493164 18.74389648 C2.05997298 20.87118014 2.06680591 22.99846031 2.07543945 25.12573242 C2.08751379 28.17627826 2.09323014 31.22677845 2.09765625 34.27734375 C2.10281754 35.23462875 2.10797882 36.19191376 2.11329651 37.1782074 C2.11337204 38.05904495 2.11344757 38.93988251 2.11352539 39.84741211 C2.115746 40.62684677 2.11796661 41.40628143 2.12025452 42.20933533 C2 44 2 44 1 45 C-1.67058851 45.14115161 -4.32432238 45.04247107 -7 45 C-7.33 44.34 -7.66 43.68 -8 43 C-5.36 43 -2.72 43 0 43 C0 28.81 0 14.62 0 0 Z " fill="#DEDDD9" transform="translate(276,338)"/>
<path d="M0 0 C1 2 1 2 0.109375 4.79296875 C-0.33921875 5.91316406 -0.7878125 7.03335937 -1.25 8.1875 C-1.94416016 9.93160156 -1.94416016 9.93160156 -2.65234375 11.7109375 C-4.06499949 15.15863645 -5.49416024 18.59204685 -7 22 C-5.02 22 -3.04 22 -1 22 C-0.87625 21.401875 -0.7525 20.80375 -0.625 20.1875 C0 18 0 18 2 15 C1.25 21.75 1.25 21.75 -1 24 C-4.625 24.125 -4.625 24.125 -8 24 C-9.49703016 19.32613258 -8.38253735 16.87327193 -6.25 12.5625 C-5.71890625 11.47066406 -5.1878125 10.37882812 -4.640625 9.25390625 C-4.09921875 8.18011719 -3.5578125 7.10632813 -3 6 C-2.43796875 4.87464844 -1.8759375 3.74929688 -1.296875 2.58984375 C-0.86890625 1.73519531 -0.4409375 0.88054687 0 0 Z " fill="#E0DEDB" transform="translate(259,411)"/>
<path d="M0 0 C0.66 0 1.32 0 2 0 C2 0.66 2 1.32 2 2 C1.34 2 0.68 2 0 2 C-0.2475 2.639375 -0.495 3.27875 -0.75 3.9375 C-2.40811572 7.99988351 -4.2035584 11.99724906 -6 16 C-6.66 16 -7.32 16 -8 16 C-8.2165625 17.299375 -8.2165625 17.299375 -8.4375 18.625 C-8.95833333 21.75 -9.47916667 24.875 -10 28 C-10.66 28 -11.32 28 -12 28 C-11.08046607 17.70122003 -7.47617508 7.47617508 0 0 Z " fill="#EEEDEB" transform="translate(191,87)"/>
<path d="M0 0 C5.15937788 -0.1488062 10.31749559 -0.25742793 15.47851562 -0.32958984 C17.2323178 -0.35968276 18.98597045 -0.4005686 20.73925781 -0.45263672 C23.26665168 -0.52579057 25.79204973 -0.55952866 28.3203125 -0.5859375 C29.48785568 -0.63238907 29.48785568 -0.63238907 30.6789856 -0.67977905 C35.11044271 -0.68249178 37.34364257 -0.14491378 40.54248047 3.03662109 C41.75895264 4.50349365 41.75895264 4.50349365 43 6 C42.67 6.99 42.34 7.98 42 9 C41.443125 8.21625 40.88625 7.4325 40.3125 6.625 C36.99365037 2.85765718 34.37932107 2.12226928 29.40307617 1.68115234 C28.03329282 1.63993339 26.66318345 1.60867743 25.29296875 1.5859375 C24.56757401 1.56657135 23.84217926 1.5472052 23.09480286 1.5272522 C20.79248578 1.46777892 18.49011781 1.42120155 16.1875 1.375 C14.62042168 1.33679042 13.05336369 1.29773697 11.48632812 1.2578125 C7.65771848 1.16210437 3.82901058 1.07795552 0 1 C0 0.67 0 0.34 0 0 Z " fill="#C9C8C6" transform="translate(232,156)"/>
<path d="M0 0 C0.33 0 0.66 0 1 0 C1 5.28 1 10.56 1 16 C5.95 16.33 10.9 16.66 16 17 C16 17.33 16 17.66 16 18 C10.39 18 4.78 18 -1 18 C-1.020625 15.215625 -1.04125 12.43125 -1.0625 9.5625 C-1.071604 8.68408447 -1.08070801 7.80566895 -1.09008789 6.90063477 C-1.09723091 4.93354026 -1.05031893 2.96646379 -1 1 C-0.67 0.67 -0.34 0.34 0 0 Z " fill="#DBDAD8" transform="translate(249,339)"/>
<path d="M0 0 C0.99 0 1.98 0 3 0 C3 0.66 3 1.32 3 2 C10.26 2 17.52 2 25 2 C24.67 2.99 24.34 3.98 24 5 C20.93601549 5.13530844 17.87802874 5.2342407 14.8125 5.3125 C13.51602539 5.3753418 13.51602539 5.3753418 12.19335938 5.43945312 C5.8542447 5.5608921 5.8542447 5.5608921 3.27099609 3.86474609 C1.88671875 2.48046875 1.88671875 2.48046875 0 0 Z " fill="#E3E2DE" transform="translate(266,266)"/>
<path d="M0 0 C0.33 0.99 0.66 1.98 1 3 C-1.28841444 5.81651009 -2.31614695 6.92876531 -6 7.3125 C-9 7 -9 7 -11.25 6.375 C-12.11625 6.189375 -12.11625 6.189375 -13 6 C-13.66 6.66 -14.32 7.32 -15 8 C-14.34 8.66 -13.68 9.32 -13 10 C-14.32 10 -15.64 10 -17 10 C-16.25 5.25 -16.25 5.25 -14 3 C-11.16884675 3.18608519 -8.42860789 3.64675078 -5.62890625 4.1015625 C-2.84882116 4.30291157 -2.84882116 4.30291157 -1.15234375 2.0234375 C-0.77207031 1.35570312 -0.39179688 0.68796875 0 0 Z " fill="#D9D9D5" transform="translate(237,422)"/>
<path d="M0 0 C3.3 0.99 6.6 1.98 10 3 C10 3.66 10 4.32 10 5 C10.639375 5.268125 11.27875 5.53625 11.9375 5.8125 C14 7 14 7 15 10 C15.12781786 12.67394964 15.04391871 15.32095857 15 18 C14.34 18 13.68 18 13 18 C12.34 14.04 11.68 10.08 11 6 C9.576875 5.54625 8.15375 5.0925 6.6875 4.625 C3.6626589 3.66055791 1.6860286 2.79068573 -1 1 C-0.67 0.67 -0.34 0.34 0 0 Z " fill="#E0E0D9" transform="translate(330,355)"/>
<path d="M0 0 C2.97 0.495 2.97 0.495 6 1 C6 1.66 6 2.32 6 3 C13.59 2.67 21.18 2.34 29 2 C29.33 3.65 29.66 5.3 30 7 C29.44441406 6.50814209 28.88882812 6.01628418 28.31640625 5.50952148 C25.54684483 3.70469452 24.20282446 3.69406818 20.9375 3.84765625 C19.97585938 3.87537109 19.01421875 3.90308594 18.0234375 3.93164062 C16.00763998 4.01888768 13.99200747 4.11003453 11.9765625 4.20507812 C4.54878094 4.40919277 4.54878094 4.40919277 1.3125 1.99609375 C0.879375 1.33738281 0.44625 0.67867188 0 0 Z " fill="#E3E3E0" transform="translate(262,277)"/>
<path d="M0 0 C1.56061724 0.04234229 3.12108644 0.09036674 4.68139648 0.14282227 C5.5012352 0.16643326 6.32107391 0.19004425 7.16575623 0.21437073 C9.79483562 0.29119463 12.42363418 0.3751377 15.05249023 0.45922852 C16.8304711 0.51243049 18.60846583 0.56517099 20.38647461 0.61743164 C24.75449236 0.74683494 29.12227106 0.88262516 33.48999023 1.02172852 C33.48999023 1.35172852 33.48999023 1.68172852 33.48999023 2.02172852 C28.72152783 2.21438597 23.95282174 2.39304379 19.18334961 2.55883789 C17.5614624 2.61717916 15.93970719 2.67932069 14.31811523 2.74536133 C11.98502643 2.83971418 9.65180183 2.92031738 7.31811523 2.99829102 C6.2335202 3.04658554 6.2335202 3.04658554 5.12701416 3.09585571 C1.38333914 3.20684386 -1.33748313 3.1247835 -4.51000977 1.02172852 C-3.51000977 0.02172852 -3.51000977 0.02172852 0 0 Z " fill="#EEEDEB" transform="translate(229.510009765625,153.978271484375)"/>
<path d="M0 0 C0.66 0.33 1.32 0.66 2 1 C1.98839844 1.88042969 1.97679687 2.76085937 1.96484375 3.66796875 C1.95582031 4.82941406 1.94679687 5.99085938 1.9375 7.1875 C1.92589844 8.33605469 1.91429687 9.48460937 1.90234375 10.66796875 C1.98807168 13.59300586 2.32150977 16.16316291 3 19 C1.8274869 18.04882866 0.66212985 17.08882991 -0.5 16.125 C-1.1496875 15.59132813 -1.799375 15.05765625 -2.46875 14.5078125 C-3.22671875 13.76144531 -3.22671875 13.76144531 -4 13 C-4 12.34 -4 11.68 -4 11 C-3.01 10.34 -2.02 9.68 -1 9 C-0.42006301 6.80545319 -0.42006301 6.80545319 -0.3125 4.375 C-0.21388672 3.14910156 -0.21388672 3.14910156 -0.11328125 1.8984375 C-0.05720703 0.95871094 -0.05720703 0.95871094 0 0 Z " fill="#DFDEDC" transform="translate(134,403)"/>
<path d="M0 0 C7.92 0 15.84 0 24 0 C24 0.66 24 1.32 24 2 C23.42032471 1.99476318 22.84064941 1.98952637 22.2434082 1.98413086 C19.5997833 1.96325666 16.95617579 1.95030673 14.3125 1.9375 C13.40048828 1.92912109 12.48847656 1.92074219 11.54882812 1.91210938 C10.21948242 1.90727539 10.21948242 1.90727539 8.86328125 1.90234375 C8.05157471 1.89710693 7.23986816 1.89187012 6.40356445 1.88647461 C3.85135327 2.0070209 1.48973863 2.440051 -1 3 C-0.67 2.01 -0.34 1.02 0 0 Z " fill="#D5D4D2" transform="translate(266,235)"/>
<path d="M0 0 C2 2 2 2 2.1953125 5.6953125 C2.182009 7.17200108 2.15814835 8.64862358 2.125 10.125 C2.11597656 10.87910156 2.10695312 11.63320313 2.09765625 12.41015625 C2.0740687 14.27357254 2.03819719 16.13682593 2 18 C1.67 18 1.34 18 1 18 C0.67 19.65 0.34 21.3 0 23 C-0.33 23 -0.66 23 -1 23 C-1.02887512 19.35418313 -1.04675585 15.70839537 -1.0625 12.0625 C-1.07087891 11.02158203 -1.07925781 9.98066406 -1.08789062 8.90820312 C-1.09272461 7.42416992 -1.09272461 7.42416992 -1.09765625 5.91015625 C-1.10289307 4.99371338 -1.10812988 4.07727051 -1.11352539 3.13305664 C-1 1 -1 1 0 0 Z " fill="#E5E4E4" transform="translate(189,410)"/>
<path d="M0 0 C1.134375 0.020625 2.26875 0.04125 3.4375 0.0625 C3.1075 1.0525 2.7775 2.0425 2.4375 3.0625 C0.7875 2.7325 -0.8625 2.4025 -2.5625 2.0625 C-2.5625 9.6525 -2.5625 17.2425 -2.5625 25.0625 C-3.5525 24.7325 -4.5425 24.4025 -5.5625 24.0625 C-5.42434471 20.24968055 -5.27569438 16.43734283 -5.125 12.625 C-5.08568359 11.53638672 -5.04636719 10.44777344 -5.00585938 9.32617188 C-4.96396484 8.29169922 -4.92207031 7.25722656 -4.87890625 6.19140625 C-4.84224854 5.23306885 -4.80559082 4.27473145 -4.76782227 3.28735352 C-4.4252787 -0.42441757 -3.90550167 0.06851757 0 0 Z " fill="#D7D5D2" transform="translate(209.5625,396.9375)"/>
<path d="M0 0 C0.66 0 1.32 0 2 0 C3.49821059 3.37097383 4 5.20442119 4 9 C0.04 9 -3.92 9 -8 9 C-7.67 7.68 -7.34 6.36 -7 5 C-2.545 5.99 -2.545 5.99 2 7 C1.34 5.68 0.68 4.36 0 3 C0 2.01 0 1.02 0 0 Z " fill="#CBCAC9" transform="translate(174,357)"/>
<path d="M0 0 C0.66 0.33 1.32 0.66 2 1 C1.67 7.6 1.34 14.2 1 21 C0.34 21 -0.32 21 -1 21 C-1.02895976 17.87501937 -1.04678483 14.7500731 -1.0625 11.625 C-1.07087891 10.73554688 -1.07925781 9.84609375 -1.08789062 8.9296875 C-1.09111328 8.07890625 -1.09433594 7.228125 -1.09765625 6.3515625 C-1.10289307 5.56604004 -1.10812988 4.78051758 -1.11352539 3.97119141 C-1 2 -1 2 0 0 Z " fill="#EFEEEC" transform="translate(195,227)"/>
<path d="M0 0 C1.7734375 0.16796875 1.7734375 0.16796875 4 1 C5.8515625 3.36328125 5.8515625 3.36328125 7.625 6.3125 C8.21539062 7.27800781 8.80578125 8.24351562 9.4140625 9.23828125 C9.93742187 10.14964844 10.46078125 11.06101563 11 12 C11.63035156 13.07314453 11.63035156 13.07314453 12.2734375 14.16796875 C13 16 13 16 12 19 C10 17 10 17 8.75 13.875 C7.17669369 10.00661284 4.88134049 6.96169728 2.3046875 3.69921875 C1 2 1 2 0 0 Z " fill="#E5E4E0" transform="translate(307,133)"/>
<path d="M0 0 C0.9075 0.185625 1.815 0.37125 2.75 0.5625 C8.17375579 1.36767612 13.58253845 0.57821839 19 0 C19 0.66 19 1.32 19 2 C14.43785528 4.35465534 10.02449751 4.61784056 5 4 C1.9375 2.5625 1.9375 2.5625 0 1 C0 0.67 0 0.34 0 0 Z " fill="#E6E4E0" transform="translate(294,286)"/>
<path d="M0 0 C1 4 1 4 0 7 C1.97536745 6.65213292 1.97536745 6.65213292 4 6 C4.33 5.34 4.66 4.68 5 4 C5.66 4 6.32 4 7 4 C7 5.65 7 7.3 7 9 C3.7 9 0.4 9 -3 9 C-2.01 6.03 -1.02 3.06 0 0 Z " fill="#CCCCCB" transform="translate(266,411)"/>
<path d="M0 0 C0.70213623 0.15847412 1.40427246 0.31694824 2.12768555 0.48022461 C5.10447541 1.01890592 7.93483803 1.20791726 10.95703125 1.31640625 C12.62475586 1.37924805 12.62475586 1.37924805 14.32617188 1.44335938 C15.47666016 1.48267578 16.62714844 1.52199219 17.8125 1.5625 C18.98232422 1.60568359 20.15214844 1.64886719 21.35742188 1.69335938 C24.23817031 1.79918279 27.11900123 1.90126825 30 2 C30 2.33 30 2.66 30 3 C25.56262288 3.08690253 21.12546366 3.14035926 16.6875 3.1875 C14.79354492 3.22520508 14.79354492 3.22520508 12.86132812 3.26367188 C11.04858398 3.27817383 11.04858398 3.27817383 9.19921875 3.29296875 C7.52605591 3.31653442 7.52605591 3.31653442 5.8190918 3.34057617 C3 3 3 3 1.11254883 1.48168945 C0.74540771 0.99273193 0.3782666 0.50377441 0 0 Z " fill="#EDEBEA" transform="translate(229,135)"/>
<path d="M0 0 C0.99 0 1.98 0 3 0 C3.125 3.375 3.125 3.375 3 7 C1 9 1 9 -2.125 9.125 C-3.548125 9.063125 -3.548125 9.063125 -5 9 C-5 8.34 -5 7.68 -5 7 C-3.35 7 -1.7 7 0 7 C0 4.69 0 2.38 0 0 Z " fill="#CFCBC9" transform="translate(212,426)"/>
<path d="M0 0 C0.66 0.66 1.32 1.32 2 2 C1.98252112 4.59269983 1.86231408 7.0525154 1.625 9.625 C1.56828125 10.33140625 1.5115625 11.0378125 1.453125 11.765625 C1.31159079 13.51121361 1.15702613 15.25573673 1 17 C0.34 17 -0.32 17 -1 17 C-1.02684679 14.35409986 -1.04676357 11.70846904 -1.0625 9.0625 C-1.07087891 8.30775391 -1.07925781 7.55300781 -1.08789062 6.77539062 C-1.09652441 4.85005687 -1.05224333 2.92464419 -1 1 C-0.67 0.67 -0.34 0.34 0 0 Z " fill="#D4D2D0" transform="translate(249,364)"/>
<path d="M0 0 C0.66 0 1.32 0 2 0 C1.34309381 3.78239671 0.279869 7.21841526 -1.0625 10.8125 C-1.42472656 11.78832031 -1.78695312 12.76414062 -2.16015625 13.76953125 C-2.43730469 14.50558594 -2.71445313 15.24164063 -3 16 C-3.66 16 -4.32 16 -5 16 C-4.49228528 10.03435204 -2.61407872 5.36190101 0 0 Z " fill="#E4E4E3" transform="translate(160,354)"/>
<path d="M0 0 C0.66 0 1.32 0 2 0 C1.67 2.64 1.34 5.28 1 8 C0.34 8 -0.32 8 -1 8 C-1.12375 8.598125 -1.2475 9.19625 -1.375 9.8125 C-2 12 -2 12 -4 15 C-4.66 14.67 -5.32 14.34 -6 14 C-5.65066406 13.24074219 -5.30132812 12.48148438 -4.94140625 11.69921875 C-4.25884766 10.20841797 -4.25884766 10.20841797 -3.5625 8.6875 C-3.11003906 7.70136719 -2.65757812 6.71523437 -2.19140625 5.69921875 C-0.94268008 2.98434301 -0.94268008 2.98434301 0 0 Z " fill="#E3E2E1" transform="translate(294,173)"/>
<path d="M0 0 C0.66 0 1.32 0 2 0 C5 6.5 5 6.5 5 11 C2.69 11 0.38 11 -2 11 C-2 10.34 -2 9.68 -2 9 C-0.35 9 1.3 9 3 9 C2.01 6.03 1.02 3.06 0 0 Z " fill="#E5E2DE" transform="translate(282,424)"/>
<path d="M0 0 C6 2 12 4 18 6 C17.67 6.66 17.34 7.32 17 8 C14.72720902 7.38151263 12.45695137 6.75552738 10.1875 6.125 C8.92292969 5.77695312 7.65835937 5.42890625 6.35546875 5.0703125 C3 4 3 4 0 2 C0 1.34 0 0.68 0 0 Z " fill="#E9E7E4" transform="translate(316,360)"/>
<path d="M0 0 C0.66 0 1.32 0 2 0 C0.97877763 5.40647135 -0.13164063 10.21940105 -3 15 C-3.99 15.495 -3.99 15.495 -5 16 C-5 14.68 -5 13.36 -5 12 C-4.34 12 -3.68 12 -3 12 C-2.87625 11.319375 -2.7525 10.63875 -2.625 9.9375 C-1.90899123 6.5722588 -0.97054875 3.29986575 0 0 Z " fill="#EBE9E8" transform="translate(320,178)"/>
<path d="M0 0 C0.66 0 1.32 0 2 0 C3.69807361 4.98101593 4.996537 9.83933315 6 15 C5.34 15 4.68 15 4 15 C3.32532438 13.25307205 2.66055844 11.50231475 2 9.75 C1.62875 8.77546875 1.2575 7.8009375 0.875 6.796875 C0 4 0 4 0 0 Z " fill="#E4E3E0" transform="translate(178,132)"/>
<path d="M0 0 C3.17033042 0.33967826 3.99882607 0.99869191 6.1875 3.4375 C9.10181238 7.55773475 9.09342982 9.95478992 9 15 C8.34 15 7.68 15 7 15 C6.896875 13.948125 6.79375 12.89625 6.6875 11.8125 C6.01573535 8.08725967 5.27857801 5.97967893 3 3 C2.01 2.67 1.02 2.34 0 2 C0 1.34 0 0.68 0 0 Z " fill="#DDDCDA" transform="translate(135,358)"/>
<path d="M0 0 C4.88017275 -0.34858377 7.79586103 0.51573607 12 3 C14 5 14 5 14 8 C12 7 12 7 11 5 C8.68925595 4.25881795 6.35188447 3.59793673 4 3 C3.195625 2.79375 2.39125 2.5875 1.5625 2.375 C1.046875 2.25125 0.53125 2.1275 0 2 C0 1.34 0 0.68 0 0 Z " fill="#E3E2DF" transform="translate(128,337)"/>
<path d="M0 0 C0.66 0 1.32 0 2 0 C1.66602151 3.00580638 1.15988669 4.77861843 -0.625 7.25 C-3.69615714 9.51295789 -6.24568878 9.71120683 -10 10 C-7.53721199 7.53721199 -5.29323018 7.00228745 -2 6 C-2 5.34 -2 4.68 -2 4 C-1.34 4 -0.68 4 0 4 C0 2.68 0 1.36 0 0 Z " fill="#E9E8E7" transform="translate(243,425)"/>
<path d="M0 0 C6.92088947 -0.60709557 9.67113839 0.55928199 15 5 C14.67 5.99 14.34 6.98 14 8 C13.278125 7.38125 12.55625 6.7625 11.8125 6.125 C9.18058015 4.13643834 7.07183055 3.1027084 4 2 C2.65949948 1.34786461 1.32338632 0.68620031 0 0 Z " fill="#E7E5E4" transform="translate(263,288)"/>
<path d="M0 0 C2.475 0.99 2.475 0.99 5 2 C5 2.66 5 3.32 5 4 C5.66 4 6.32 4 7 4 C9.1519437 7.22791555 9.20086443 8.28400809 9 12 C8.34 12 7.68 12 7 12 C6.38125 10.3603125 6.38125 10.3603125 5.75 8.6875 C4.38277962 5.44280475 2.97594201 3.94975511 0 2 C0 1.34 0 0.68 0 0 Z " fill="#E5E3E2" transform="translate(329,226)"/>
<path d="M0 0 C1.37562854 1.28965176 2.70766393 2.62689293 4 4 C4 4.66 4 5.32 4 6 C4.66 6 5.32 6 6 6 C6 5.34 6 4.68 6 4 C6.66 4 7.32 4 8 4 C8 3.01 8 2.02 8 1 C8.66 1.33 9.32 1.66 10 2 C9.67 2.99 9.34 3.98 9 5 C8.34 5 7.68 5 7 5 C6.67 6.32 6.34 7.64 6 9 C4.125 8.4375 4.125 8.4375 2 7 C0.75 3.375 0.75 3.375 0 0 Z " fill="#DCDCDA" transform="translate(309,410)"/>
<path d="M0 0 C0 0.66 0 1.32 0 2 C-4.65499974 2.81462495 -9.30976546 3.43393721 -14 4 C-14 3.34 -14 2.68 -14 2 C-9.07262981 0.02905192 -5.21979128 -0.1799928 0 0 Z " fill="#E1E0DF" transform="translate(228,69)"/>
<path d="M0 0 C0.625 2.375 0.625 2.375 1 5 C0.34 5.66 -0.32 6.32 -1 7 C-1.33 4.69 -1.66 2.38 -2 0 C-5.63 0 -9.26 0 -13 0 C-13 -0.33 -13 -0.66 -13 -1 C-8.05632546 -2.20577428 -4.79137588 -1.6290678 0 0 Z " fill="#E5E5E2" transform="translate(130,420)"/>
<path d="M0 0 C0.33 0 0.66 0 1 0 C1.19406478 1.64507218 1.38007935 3.29109594 1.5625 4.9375 C1.66691406 5.85402344 1.77132813 6.77054687 1.87890625 7.71484375 C1.91886719 8.46894531 1.95882813 9.22304688 2 10 C1 11 1 11 -0.84765625 11.09765625 C-2.8984375 11.06510417 -4.94921875 11.03255208 -7 11 C-7.33 10.34 -7.66 9.68 -8 9 C-5.36 9 -2.72 9 0 9 C0 6.03 0 3.06 0 0 Z " fill="#ECECE9" transform="translate(276,372)"/>
<path d="M0 0 C0.33 0 0.66 0 1 0 C1 5.94 1 11.88 1 18 C-0.32 18 -1.64 18 -3 18 C-3 17.34 -3 16.68 -3 16 C-2.34 16 -1.68 16 -1 16 C-0.67 10.72 -0.34 5.44 0 0 Z " fill="#E0DDDB" transform="translate(383,339)"/>
<path d="M0 0 C-0.33 0.66 -0.66 1.32 -1 2 C-1.84304688 1.70802734 -1.84304688 1.70802734 -2.703125 1.41015625 C-5.52615562 0.90604364 -7.07636135 1.45454461 -9.75 2.4375 C-10.54921875 2.72496094 -11.3484375 3.01242188 -12.171875 3.30859375 C-12.77515625 3.53675781 -13.3784375 3.76492187 -14 4 C-14 3.01 -14 2.02 -14 1 C-9.35846395 -0.76820421 -4.68450286 -2.34225143 0 0 Z " fill="#E6E4E2" transform="translate(328,225)"/>
<path d="M0 0 C3.86107457 2.57404971 3.94319692 4.61020259 5 9 C3.35 8.67 1.7 8.34 0 8 C0 5.36 0 2.72 0 0 Z " fill="#E1E1E1" transform="translate(301,409)"/>
<path d="M0 0 C2.05078125 0.03255208 4.1015625 0.06510417 6.15234375 0.09765625 C6.15234375 1.08765625 6.15234375 2.07765625 6.15234375 3.09765625 C3.51234375 2.76765625 0.87234375 2.43765625 -1.84765625 2.09765625 C-2.50765625 3.41765625 -3.16765625 4.73765625 -3.84765625 6.09765625 C-2.77957394 0.14691194 -2.77957394 0.14691194 0 0 Z " fill="#D1CBCA" transform="translate(266.84765625,396.90234375)"/>
<path d="M0 0 C3 2 3 2 3.75 4.5625 C3.87375 5.7690625 3.87375 5.7690625 4 7 C3 8 3 8 1.15234375 8.09765625 C-0.8984375 8.06510417 -2.94921875 8.03255208 -5 8 C-5 7.67 -5 7.34 -5 7 C-3.02 7 -1.04 7 1 7 C0.67 4.69 0.34 2.38 0 0 Z " fill="#ECEBE9" transform="translate(191,375)"/>
<path d="M0 0 C-0.33 0.99 -0.66 1.98 -1 3 C-4.96 3 -8.92 3 -13 3 C-10.62389859 0.62389859 -9.75657693 0.66047915 -6.5 0.375 C-5.7059375 0.30023438 -4.911875 0.22546875 -4.09375 0.1484375 C-2.7316886 0.05187345 -1.36548008 0 0 0 Z " fill="#D4D4D2" transform="translate(291,268)"/>
<path d="M0 0 C2.97 1.65 5.94 3.3 9 5 C9 5.66 9 6.32 9 7 C9.66 7 10.32 7 11 7 C11 7.66 11 8.32 11 9 C6.39860359 7.51131293 3.49772906 5.25370145 0 2 C0 1.34 0 0.68 0 0 Z " fill="#E9E6E3" transform="translate(196,165)"/>
<path d="M0 0 C2.125 -0.375 2.125 -0.375 5 0 C7.23913252 1.79340357 9.12454539 3.83452663 11 6 C10.67 6.99 10.34 7.98 10 9 C9.46375 8.236875 8.9275 7.47375 8.375 6.6875 C5.79794186 3.77135526 3.54185596 2.5294378 0 1 C0 0.67 0 0.34 0 0 Z " fill="#DCDBD9" transform="translate(264,156)"/>
<path d="M0 0 C-0.33 0.99 -0.66 1.98 -1 3 C-4.63 3 -8.26 3 -12 3 C-11.67 2.34 -11.34 1.68 -11 1 C-9.00390625 0.5859375 -9.00390625 0.5859375 -6.5625 0.375 C-5.75941406 0.30023438 -4.95632812 0.22546875 -4.12890625 0.1484375 C-2.75505053 0.05264572 -1.3771912 0 0 0 Z " fill="#E1DDDD" transform="translate(132,432)"/>
<path d="M0 0 C0.99 0.33 1.98 0.66 3 1 C2.57847656 1.54269531 2.15695313 2.08539063 1.72265625 2.64453125 C1.17480469 3.35996094 0.62695312 4.07539062 0.0625 4.8125 C-0.48277344 5.52019531 -1.02804688 6.22789063 -1.58984375 6.95703125 C-3.16856248 9.04125052 -3.16856248 9.04125052 -4 12 C-4.66 12 -5.32 12 -6 12 C-4.68139111 7.38486888 -2.78644563 3.90102388 0 0 Z " fill="#DFDBDA" transform="translate(212,104)"/>
<path d="M0 0 C0.33 0.99 0.66 1.98 1 3 C-2.63 4.32 -6.26 5.64 -10 7 C-8 3 -8 3 -6.0546875 1.953125 C-4.97574219 1.60507813 -4.97574219 1.60507813 -3.875 1.25 C-3.15054688 1.00765625 -2.42609375 0.7653125 -1.6796875 0.515625 C-1.12539062 0.34546875 -0.57109375 0.1753125 0 0 Z " fill="#ECEAE8" transform="translate(227,96)"/>
<path d="M0 0 C1.5 1.375 1.5 1.375 3 3 C3 3.66 3 4.32 3 5 C3.639375 5.268125 4.27875 5.53625 4.9375 5.8125 C7 7 7 7 8 10 C7.01 10 6.02 10 5 10 C3.61328125 8.57421875 3.61328125 8.57421875 2.3125 6.6875 C1.87550781 6.07261719 1.43851562 5.45773437 0.98828125 4.82421875 C0 3 0 3 0 0 Z " fill="#E3E1E0" transform="translate(376,418)"/>
<path d="M0 0 C5.80205656 5.64524422 5.80205656 5.64524422 8 9 C8 9.66 8 10.32 8 11 C7.34 11 6.68 11 6 11 C5.34 9.35 4.68 7.7 4 6 C3.34 6 2.68 6 2 6 C0 3 0 3 0 0 Z " fill="#EEEDED" transform="translate(190,399)"/>
<path d="M0 0 C0 0.66 0 1.32 0 2 C-2.64 2.66 -5.28 3.32 -8 4 C-8 4.66 -8 5.32 -8 6 C-8.99 5.67 -9.98 5.34 -11 5 C-4.87096774 0 -4.87096774 0 0 0 Z " fill="#E7E7E2" transform="translate(325,337)"/>
<path d="M0 0 C0.90105469 0.00902344 1.80210937 0.01804688 2.73046875 0.02734375 C3.41753906 0.03894531 4.10460937 0.05054688 4.8125 0.0625 C4.4825 0.7225 4.1525 1.3825 3.8125 2.0625 C-1.22640228 3.0908474 -6.07439982 3.15220351 -11.1875 3.0625 C-7.23784431 0.4293962 -4.63874115 -0.06024339 0 0 Z " fill="#D1D1CF" transform="translate(224.1875,243.9375)"/>
<path d="M0 0 C0.53625 0.474375 1.0725 0.94875 1.625 1.4375 C4.42842836 3.28186076 6.69620258 3.62456847 10 4 C10 4.66 10 5.32 10 6 C3.539801 6.36567164 3.539801 6.36567164 1.0625 4.6875 C0 3 0 3 0 0 Z " fill="#DFDCDB" transform="translate(384,429)"/>
<path d="M0 0 C0.66 0.33 1.32 0.66 2 1 C1.01 3.97 0.02 6.94 -1 10 C-1.66 10 -2.32 10 -3 10 C-2.49287967 6.28111761 -1.88391785 3.26545761 0 0 Z " fill="#E9E9E6" transform="translate(166,339)"/>
<path d="M0 0 C0 0.66 0 1.32 0 2 C-5.75 5 -5.75 5 -8 5 C-8 5.66 -8 6.32 -8 7 C-8.66 7 -9.32 7 -10 7 C-8.2054392 2.26888516 -5.07937287 0 0 0 Z " fill="#ECE7E6" transform="translate(208,75)"/>
<path d="M0 0 C0.33 0.99 0.66 1.98 1 3 C-2.32307692 6.93846154 -2.32307692 6.93846154 -5.75 7.25 C-6.4925 7.1675 -7.235 7.085 -8 7 C-8 6.34 -8 5.68 -8 5 C-7.05125 4.731875 -6.1025 4.46375 -5.125 4.1875 C-1.74732727 3.25013412 -1.74732727 3.25013412 0 0 Z " fill="#EAEAE7" transform="translate(237,422)"/>
<path d="M0 0 C0.66 0 1.32 0 2 0 C2.67408308 1.26691507 3.33900497 2.53870749 4 3.8125 C4.556875 4.87404297 4.556875 4.87404297 5.125 5.95703125 C6 8 6 8 6 11 C5.34 11 4.68 11 4 11 C3.32880451 9.5437455 2.66318193 8.08492133 2 6.625 C1.62875 5.81289063 1.2575 5.00078125 0.875 4.1640625 C0 2 0 2 0 0 Z " fill="#E3E2E0" transform="translate(306,418)"/>
<path d="M0 0 C5.78461538 4.30769231 5.78461538 4.30769231 6.875 7.8125 C6.936875 8.8953125 6.936875 8.8953125 7 10 C2.78577758 7.11658466 1.23924145 4.95696581 0 0 Z " fill="#ECE9E8" transform="translate(198,410)"/>
<path d="M0 0 C2.95749791 3.46741134 5.07848152 6.86873527 7 11 C3.64189605 9.61043975 1.81413448 8.17473533 0 5 C-0.1875 2.25 -0.1875 2.25 0 0 Z " fill="#E6E4E3" transform="translate(184,148)"/>
<path d="M0 0 C0.66 0 1.32 0 2 0 C2 0.66 2 1.32 2 2 C1.34 2 0.68 2 0 2 C-0.4021875 3.1446875 -0.4021875 3.1446875 -0.8125 4.3125 C-1.94424112 6.87380884 -2.91223401 8.19692938 -5 10 C-4.49890042 5.61537866 -3.01704885 3.1999003 0 0 Z " fill="#E8E4E1" transform="translate(191,87)"/>
<path d="M0 0 C0.66 0 1.32 0 2 0 C2 1.32 2 2.64 2 4 C2.61875 4.28875 3.2375 4.5775 3.875 4.875 C6 6 6 6 8 8 C3.25 7.125 3.25 7.125 1 6 C0.375 2.9375 0.375 2.9375 0 0 Z " fill="#DDDBD3" transform="translate(320,348)"/>
<path d="M0 0 C0.66 0 1.32 0 2 0 C2.66 2.64 3.32 5.28 4 8 C3.01 8 2.02 8 1 8 C0.26919734 6.02253397 -0.39421747 4.01927511 -1 2 C-0.67 1.34 -0.34 0.68 0 0 Z " fill="#DEDDD8" transform="translate(119,347)"/>
<path d="M0 0 C0.33 0.66 0.66 1.32 1 2 C-1.97411124 3.23921302 -4.85262818 4.30058404 -8 5 C-8 4.01 -8 3.02 -8 2 C-5.36 1.34 -2.72 0.68 0 0 Z " fill="#EDEBE6" transform="translate(280,193)"/>
<path d="M0 0 C0 0.66 0 1.32 0 2 C-4.455 3.485 -4.455 3.485 -9 5 C-9 4.34 -9 3.68 -9 3 C-3.375 0 -3.375 0 0 0 Z " fill="#F1F0EE" transform="translate(340,379)"/>
<path d="M0 0 C0.66 0 1.32 0 2 0 C0.66666667 2.66666667 -0.66666667 5.33333333 -2 8 C-2.66 8 -3.32 8 -4 8 C-3.40312566 4.65750371 -2.26396123 2.53563658 0 0 Z " fill="#F0EDE7" transform="translate(177,207)"/>
<path d="M0 0 C0.99 0.495 0.99 0.495 2 1 C1.67 1.66 1.34 2.32 1 3 C1.66 3 2.32 3 3 3 C2.67 5.97 2.34 8.94 2 12 C1.67 12 1.34 12 1 12 C0.67 8.04 0.34 4.08 0 0 Z " fill="#EAE9E7" transform="translate(294,159)"/>
<path d="M0 0 C0.66 0.33 1.32 0.66 2 1 C1.67 3.64 1.34 6.28 1 9 C0.34 9 -0.32 9 -1 9 C-1.125 2.25 -1.125 2.25 0 0 Z " fill="#F0EFED" transform="translate(205,115)"/>
<path d="M0 0 C2.15377564 2.62198774 3.40072174 4.64404172 4 8 C1 7 1 7 -1 4 C-0.625 1.8125 -0.625 1.8125 0 0 Z " fill="#E8E7E6" transform="translate(268,406)"/>
<path d="M0 0 C0 0.66 0 1.32 0 2 C-2.64 2.66 -5.28 3.32 -8 4 C-8 3.34 -8 2.68 -8 2 C-5.09399739 0.74335022 -3.20395416 0 0 0 Z " fill="#E4E4DF" transform="translate(195,197)"/>
</svg>
