<svg width="40" height="40" viewBox="0 0 40 40" fill="none" xmlns="http://www.w3.org/2000/svg">
<g clip-path="url(#clip0_1_953)">
<path d="M20.0003 0.800049C9.39629 0.800049 0.800293 9.39609 0.800293 20.0001C0.800293 30.6042 9.39629 39.2002 20.0003 39.2002C30.6043 39.2002 39.2003 30.6042 39.2003 20.0001C39.2003 9.39609 30.6043 0.800049 20.0003 0.800049ZM15.3003 27.9582H11.4123V15.4461H15.3003V27.9582ZM13.3323 13.9101C12.1043 13.9101 11.3103 13.0401 11.3103 11.9641C11.3103 10.8661 12.1283 10.0221 13.3823 10.0221C14.6363 10.0221 15.4043 10.8661 15.4283 11.9641C15.4283 13.0401 14.6363 13.9101 13.3323 13.9101ZM29.5003 27.9582H25.6123V21.0241C25.6123 19.4101 25.0483 18.3141 23.6423 18.3141C22.5683 18.3141 21.9303 19.0561 21.6483 19.7701C21.5443 20.0241 21.5183 20.3841 21.5183 20.7421V27.9562H17.6283V19.4361C17.6283 17.8741 17.5783 16.5681 17.5263 15.4441H20.9043L21.0823 17.1821H21.1603C21.6723 16.3661 22.9263 15.1621 25.0243 15.1621C27.5823 15.1621 29.5003 16.8761 29.5003 20.5601V27.9582Z" fill="black"/>
</g>
<defs>
<clipPath id="clip0_1_953">
<rect width="40" height="40" fill="white"/>
</clipPath>
</defs>
</svg>
