<svg xmlns="http://www.w3.org/2000/svg" viewBox="0 0 1024 1024" fill="white" stroke="none">
  <path d="M 0 0 L 0 1 L 1 2 L 0 3 L 0 7 L 1 8 L 0 9 L 1 10 L 1 14 L 0 15 L 0 20 L 1 21 L 0 22 L 0 28 L 1 29 L 1 30 L 0 31 L 1 32 L 0 33 L 0 34 L 1 35 L 0 36 L 1 37 L 1 38 L 0 39 L 0 42 L 1 43 L 1 47 L 0 48 L 0 52 L 1 53 L 0 54 L 0 57 L 1 58 L 1 59 L 0 60 L 0 62 L 1 63 L 1 65 L 0 66 L 0 74 L 1 75 L 1 76 L 0 77 L 0 80 L 1 81 L 1 82 L 0 83 L 0 90 L 1 91 L 0 92 L 0 97 L 1 98 L 0 99 L 0 100 L 1 101 L 1 102 L 0 103 L 0 109 L 1 110 L 0 111 L 0 112 L 1 113 L 1 116 L 0 117 L 0 123 L 1 124 L 0 125 L 0 128 L 1 129 L 0 130 L 0 132 L 1 133 L 0 134 L 1 135 L 1 136 L 0 137 L 0 138 L 1 139 L 0 140 L 1 141 L 0 142 L 0 143 L 1 144 L 1 145 L 0 146 L 1 147 L 0 148 L 0 160 L 1 161 L 1 163 L 0 164 L 1 165 L 0 166 L 0 167 L 1 168 L 0 169 L 0 173 L 1 174 L 0 175 L 0 176 L 2 178 L 1 179 L 0 179 L 0 181 L 1 182 L 1 183 L 0 184 L 0 193 L 1 194 L 0 195 L 0 198 L 1 199 L 1 200 L 0 201 L 0 203 L 1 204 L 0 205 L 1 206 L 1 207 L 2 208 L 0 210 L 0 211 L 1 212 L 1 217 L 0 218 L 0 219 L 1 220 L 1 221 L 0 222 L 0 223 L 1 224 L 1 225 L 0 226 L 0 227 L 1 228 L 1 233 L 0 234 L 1 235 L 1 236 L 0 237 L 0 238 L 1 239 L 0 240 L 1 241 L 1 243 L 0 244 L 0 245 L 1 246 L 1 247 L 0 248 L 0 253 L 1 254 L 1 259 L 0 260 L 0 263 L 1 264 L 1 265 L 0 266 L 0 267 L 1 268 L 1 269 L 0 270 L 1 271 L 0 272 L 1 273 L 0 274 L 0 275 L 1 276 L 1 279 L 0 280 L 0 282 L 1 283 L 1 285 L 0 286 L 0 292 L 1 293 L 0 294 L 1 295 L 0 296 L 0 298 L 1 299 L 1 300 L 0 301 L 1 302 L 1 303 L 0 304 L 1 305 L 1 311 L 0 312 L 0 314 L 1 315 L 0 316 L 1 317 L 1 319 L 0 320 L 0 322 L 1 323 L 1 328 L 0 329 L 0 331 L 1 332 L 1 333 L 0 334 L 0 335 L 1 336 L 1 338 L 0 339 L 0 342 L 1 343 L 0 344 L 0 351 L 1 352 L 1 353 L 0 354 L 0 355 L 1 356 L 1 359 L 0 360 L 1 361 L 1 364 L 0 365 L 1 366 L 1 368 L 0 369 L 0 372 L 1 373 L 1 374 L 0 375 L 1 376 L 0 377 L 0 378 L 1 379 L 1 382 L 0 383 L 0 384 L 1 385 L 0 386 L 0 393 L 1 394 L 1 397 L 0 398 L 0 399 L 1 400 L 1 402 L 0 403 L 0 405 L 1 406 L 1 408 L 0 409 L 0 415 L 1 416 L 0 417 L 1 418 L 1 419 L 0 420 L 0 422 L 1 423 L 0 424 L 0 425 L 1 426 L 0 427 L 0 428 L 1 429 L 1 430 L 0 431 L 0 435 L 1 436 L 0 437 L 0 441 L 1 442 L 0 443 L 0 445 L 1 446 L 1 447 L 0 448 L 0 451 L 1 452 L 1 453 L 0 454 L 0 455 L 1 456 L 0 457 L 0 464 L 1 465 L 0 466 L 1 467 L 0 468 L 1 469 L 1 474 L 0 475 L 0 480 L 1 481 L 0 482 L 1 483 L 1 484 L 0 485 L 0 487 L 2 489 L 2 490 L 0 492 L 0 494 L 1 495 L 1 499 L 0 500 L 0 501 L 1 502 L 1 503 L 0 504 L 1 505 L 1 506 L 0 507 L 1 508 L 1 509 L 0 510 L 0 518 L 1 519 L 0 520 L 0 522 L 1 523 L 1 524 L 0 525 L 0 526 L 1 527 L 1 528 L 0 529 L 0 530 L 1 531 L 1 536 L 0 537 L 1 538 L 1 539 L 0 540 L 0 542 L 1 543 L 0 544 L 0 545 L 1 546 L 1 548 L 0 549 L 0 550 L 1 551 L 0 552 L 1 553 L 0 554 L 1 555 L 1 559 L 0 560 L 1 561 L 1 562 L 0 563 L 0 566 L 2 568 L 1 569 L 0 569 L 0 570 L 1 571 L 0 572 L 0 582 L 1 583 L 1 591 L 0 592 L 1 593 L 1 595 L 0 596 L 0 600 L 1 601 L 1 602 L 0 603 L 1 604 L 1 607 L 0 608 L 0 609 L 1 610 L 1 611 L 0 612 L 0 613 L 1 614 L 1 615 L 0 616 L 1 617 L 1 624 L 0 625 L 0 627 L 1 628 L 1 629 L 0 630 L 1 631 L 1 632 L 0 633 L 0 635 L 1 636 L 1 637 L 0 638 L 1 639 L 1 640 L 0 641 L 0 644 L 1 645 L 1 647 L 0 648 L 0 649 L 1 650 L 0 651 L 0 652 L 1 653 L 0 654 L 1 655 L 1 658 L 0 659 L 0 663 L 1 664 L 1 676 L 0 677 L 0 678 L 1 679 L 0 680 L 0 684 L 1 685 L 1 690 L 0 691 L 0 692 L 1 693 L 1 694 L 0 695 L 0 702 L 1 703 L 1 705 L 0 706 L 0 709 L 1 710 L 0 711 L 0 714 L 1 715 L 0 716 L 1 717 L 0 718 L 0 720 L 1 721 L 1 723 L 0 724 L 1 725 L 1 726 L 0 727 L 1 728 L 1 746 L 0 747 L 1 748 L 1 751 L 0 752 L 1 753 L 1 766 L 0 767 L 1 768 L 1 772 L 0 773 L 0 774 L 1 775 L 1 777 L 0 778 L 1 779 L 1 781 L 0 782 L 1 783 L 1 784 L 0 785 L 0 786 L 1 787 L 1 789 L 0 790 L 1 791 L 1 795 L 0 796 L 0 799 L 1 800 L 1 803 L 0 804 L 0 806 L 1 807 L 1 808 L 0 809 L 1 810 L 1 814 L 0 815 L 0 819 L 1 820 L 1 822 L 0 823 L 1 824 L 1 829 L 0 830 L 0 831 L 1 832 L 1 837 L 0 838 L 1 839 L 1 840 L 0 841 L 0 842 L 1 843 L 1 847 L 0 848 L 1 849 L 0 850 L 0 851 L 1 852 L 1 859 L 2 860 L 2 861 L 1 862 L 1 864 L 0 865 L 0 866 L 1 867 L 1 869 L 0 870 L 1 871 L 1 882 L 0 883 L 1 884 L 1 886 L 0 887 L 1 888 L 1 892 L 0 893 L 1 894 L 1 896 L 0 897 L 0 898 L 1 899 L 1 907 L 0 908 L 0 909 L 1 910 L 0 911 L 0 912 L 1 913 L 1 916 L 0 917 L 1 918 L 1 921 L 0 922 L 1 923 L 0 924 L 1 925 L 1 928 L 0 929 L 0 930 L 1 931 L 1 934 L 0 935 L 0 936 L 1 937 L 1 940 L 0 941 L 0 942 L 1 943 L 0 944 L 1 945 L 1 946 L 0 947 L 0 950 L 1 951 L 1 959 L 0 960 L 0 961 L 1 962 L 0 963 L 1 964 L 0 965 L 0 967 L 1 968 L 1 970 L 0 971 L 0 974 L 1 975 L 1 977 L 0 978 L 0 980 L 1 981 L 1 983 L 2 984 L 0 986 L 1 987 L 0 988 L 0 989 L 1 990 L 1 991 L 0 992 L 0 994 L 1 995 L 1 996 L 0 997 L 0 998 L 1 999 L 1 1001 L 0 1002 L 1 1003 L 1 1007 L 0 1008 L 1 1009 L 1 1010 L 0 1011 L 1 1012 L 1 1013 L 0 1014 L 1 1015 L 1 1016 L 0 1017 L 0 1022 L 3 1022 L 4 1023 L 5 1022 L 16 1022 L 17 1023 L 18 1022 L 19 1022 L 20 1023 L 21 1022 L 26 1022 L 27 1023 L 28 1023 L 29 1022 L 30 1023 L 31 1022 L 38 1022 L 39 1023 L 40 1022 L 41 1022 L 42 1023 L 43 1022 L 52 1022 L 53 1023 L 55 1021 L 56 1022 L 58 1022 L 59 1023 L 60 1023 L 61 1022 L 62 1023 L 63 1022 L 74 1022 L 75 1023 L 77 1023 L 78 1022 L 87 1022 L 88 1023 L 89 1023 L 90 1022 L 91 1023 L 92 1022 L 102 1022 L 103 1023 L 110 1023 L 111 1022 L 112 1022 L 113 1023 L 119 1023 L 120 1022 L 121 1023 L 123 1023 L 124 1022 L 129 1022 L 130 1023 L 132 1023 L 133 1022 L 134 1022 L 135 1023 L 136 1022 L 137 1023 L 138 1023 L 139 1022 L 143 1022 L 144 1023 L 145 1022 L 149 1022 L 150 1023 L 151 1022 L 154 1022 L 155 1023 L 156 1022 L 166 1022 L 167 1023 L 168 1023 L 169 1022 L 170 1023 L 171 1022 L 172 1022 L 173 1023 L 174 1022 L 177 1022 L 178 1023 L 179 1022 L 180 1022 L 181 1023 L 182 1022 L 183 1022 L 184 1023 L 185 1023 L 186 1022 L 188 1022 L 189 1023 L 190 1022 L 195 1022 L 196 1023 L 199 1023 L 200 1022 L 201 1023 L 202 1022 L 213 1022 L 214 1023 L 217 1023 L 218 1022 L 226 1022 L 227 1023 L 228 1022 L 229 1022 L 230 1023 L 235 1023 L 236 1022 L 239 1022 L 240 1023 L 241 1022 L 251 1022 L 252 1023 L 253 1023 L 254 1022 L 260 1022 L 261 1023 L 262 1022 L 266 1022 L 267 1023 L 269 1023 L 270 1022 L 271 1022 L 272 1023 L 273 1022 L 274 1022 L 275 1023 L 279 1023 L 280 1022 L 281 1022 L 282 1023 L 283 1023 L 284 1022 L 289 1022 L 290 1023 L 292 1023 L 293 1022 L 305 1022 L 306 1023 L 307 1023 L 308 1022 L 311 1022 L 312 1023 L 313 1022 L 314 1023 L 315 1022 L 316 1023 L 317 1023 L 318 1022 L 320 1022 L 321 1023 L 322 1022 L 332 1022 L 333 1023 L 334 1022 L 335 1023 L 336 1022 L 342 1022 L 343 1023 L 344 1022 L 348 1022 L 349 1023 L 350 1022 L 357 1022 L 358 1023 L 359 1022 L 360 1022 L 361 1023 L 366 1023 L 367 1022 L 377 1022 L 378 1023 L 379 1023 L 380 1022 L 382 1022 L 383 1023 L 384 1023 L 385 1022 L 386 1022 L 387 1023 L 389 1023 L 390 1022 L 391 1023 L 392 1022 L 394 1022 L 395 1023 L 396 1022 L 397 1023 L 398 1023 L 399 1022 L 402 1022 L 403 1023 L 404 1023 L 405 1022 L 407 1022 L 408 1023 L 409 1022 L 412 1022 L 413 1023 L 414 1022 L 415 1022 L 416 1023 L 421 1023 L 422 1022 L 425 1022 L 426 1023 L 428 1023 L 429 1022 L 432 1022 L 433 1023 L 437 1023 L 438 1022 L 439 1023 L 440 1022 L 445 1022 L 446 1023 L 447 1022 L 452 1022 L 453 1023 L 454 1023 L 455 1022 L 457 1022 L 458 1023 L 459 1022 L 465 1022 L 466 1023 L 470 1023 L 471 1022 L 474 1022 L 475 1023 L 479 1023 L 480 1022 L 481 1022 L 482 1023 L 483 1022 L 489 1022 L 490 1023 L 491 1022 L 494 1022 L 495 1023 L 496 1022 L 497 1023 L 498 1022 L 508 1022 L 509 1023 L 510 1022 L 512 1022 L 513 1023 L 514 1023 L 515 1022 L 516 1023 L 518 1023 L 519 1022 L 521 1022 L 522 1023 L 525 1023 L 526 1022 L 527 1023 L 532 1023 L 533 1022 L 537 1022 L 538 1023 L 541 1023 L 542 1022 L 545 1022 L 546 1023 L 547 1022 L 555 1022 L 556 1023 L 557 1023 L 558 1022 L 559 1023 L 560 1023 L 561 1022 L 577 1022 L 578 1023 L 579 1022 L 583 1022 L 584 1023 L 585 1023 L 586 1022 L 596 1022 L 597 1023 L 601 1023 L 602 1022 L 609 1022 L 610 1023 L 611 1022 L 614 1022 L 615 1023 L 616 1022 L 618 1022 L 619 1023 L 620 1022 L 626 1022 L 627 1023 L 633 1023 L 634 1022 L 660 1022 L 661 1023 L 663 1023 L 664 1022 L 668 1022 L 669 1023 L 670 1022 L 671 1023 L 679 1023 L 680 1022 L 699 1022 L 700 1023 L 701 1023 L 702 1022 L 703 1022 L 704 1023 L 707 1023 L 708 1022 L 709 1022 L 710 1023 L 711 1023 L 712 1022 L 714 1022 L 715 1023 L 716 1023 L 717 1022 L 718 1022 L 719 1023 L 722 1023 L 723 1022 L 724 1023 L 726 1023 L 727 1022 L 729 1022 L 730 1023 L 731 1023 L 732 1022 L 733 1023 L 735 1023 L 736 1022 L 739 1022 L 740 1023 L 741 1022 L 745 1022 L 746 1023 L 748 1023 L 749 1022 L 760 1022 L 761 1023 L 762 1023 L 763 1022 L 764 1022 L 765 1023 L 766 1022 L 768 1022 L 769 1023 L 771 1023 L 772 1022 L 776 1022 L 777 1023 L 778 1022 L 789 1022 L 790 1023 L 791 1022 L 799 1022 L 800 1023 L 805 1023 L 806 1022 L 810 1022 L 811 1023 L 812 1022 L 817 1022 L 818 1023 L 819 1023 L 820 1022 L 822 1022 L 823 1023 L 829 1023 L 830 1022 L 831 1023 L 832 1022 L 833 1023 L 834 1022 L 840 1022 L 841 1023 L 842 1022 L 846 1022 L 847 1023 L 848 1022 L 855 1022 L 856 1023 L 858 1023 L 859 1022 L 883 1022 L 884 1023 L 885 1023 L 886 1022 L 899 1022 L 900 1023 L 901 1023 L 902 1022 L 905 1022 L 906 1023 L 907 1022 L 911 1022 L 912 1023 L 915 1023 L 916 1022 L 918 1022 L 919 1023 L 920 1023 L 921 1022 L 929 1022 L 930 1023 L 931 1022 L 955 1022 L 956 1023 L 957 1022 L 960 1022 L 961 1023 L 962 1023 L 963 1022 L 985 1022 L 986 1023 L 991 1023 L 992 1022 L 996 1022 L 997 1023 L 998 1022 L 999 1023 L 1000 1023 L 1001 1022 L 1002 1023 L 1003 1022 L 1006 1022 L 1007 1023 L 1009 1023 L 1010 1022 L 1012 1022 L 1013 1023 L 1015 1023 L 1016 1022 L 1021 1022 L 1022 1023 L 1023 1023 L 1023 0 Z" />
</svg>