<svg width="37" height="37" viewBox="0 0 37 37" fill="none" xmlns="http://www.w3.org/2000/svg">
<path d="M17.8619 8.11794C20.6866 8.11794 23.3483 9.37016 25.2989 11.3277V11.3335C25.2989 10.3934 25.9314 9.68235 26.8055 9.68235H27.0275C28.4069 9.68235 28.6832 10.9831 28.6832 11.3936L28.689 26.0028C28.593 26.9602 29.6776 27.4551 30.28 26.8399C32.6214 24.4315 35.4276 14.4461 28.822 8.66485C22.6615 3.26863 14.3931 4.1601 9.99708 7.18947C5.32468 10.4177 2.33808 17.5483 5.23911 24.2499C8.40724 31.5563 17.4641 33.7358 22.8546 31.5621C25.5833 30.4602 26.8413 34.144 24.005 35.3499C19.7304 37.1733 7.81755 36.9872 2.25368 27.3522C-1.50529 20.8436 -1.30642 9.39444 8.66739 3.46288C16.2906 -1.07771 26.3488 0.180286 32.4121 6.51076C38.7484 13.1349 38.3819 25.5288 32.1959 30.3468C29.3943 32.5379 25.2341 30.407 25.2642 27.2146L25.233 26.1739C23.2824 28.106 20.6866 29.2392 17.8619 29.2392C12.2737 29.2392 7.35389 24.3182 7.35389 18.7358C7.35389 13.0933 12.2737 8.12025 17.8619 8.12025V8.11794ZM24.8907 18.3323C24.6791 14.2426 21.644 11.7798 17.9764 11.7798H17.8376C13.6104 11.7798 11.262 15.1098 11.262 18.8849C11.262 23.118 14.0983 25.7912 17.8203 25.7912C21.9747 25.7912 24.7023 22.7514 24.9011 19.1555L24.8907 18.3323Z" fill="black"/>
</svg>
